<svg width="612" height="900" viewBox="0 0 612 900" fill="none" xmlns="http://www.w3.org/2000/svg">
<g id="fignu2" clip-path="url(#clip0_4187:24145)">
<path id="fignu2-line" d="M310 740V913" stroke="url(#paint0_linear_4187:24145)" stroke-width="3" stroke-linecap="round" stroke-dasharray="1 10"/>
<g id="fignu2-phone">
<g id="Rectangle 4.3" filter="url(#filter0_d_4187:24145)">
<path d="M470 188.821C470 188.368 470.368 188 470.821 188V188C472.181 188 473.284 189.103 473.284 190.463V258.608C473.284 259.968 472.181 261.071 470.821 261.071V261.071C470.368 261.071 470 260.703 470 260.25V188.821Z" fill="white"/>
</g>
<path id="Rectangle 1005" d="M142 138C142 136.343 143.343 135 145 135H145.105C145.657 135 146.105 135.448 146.105 136V159.452C146.105 160.004 145.657 160.452 145.105 160.452H145C143.343 160.452 142 159.108 142 157.452V138Z" fill="white"/>
<path id="Rectangle 4.1" d="M142 181.463C142 180.103 143.103 179 144.463 179H145.284C145.738 179 146.105 179.368 146.105 179.821V222.514C146.105 222.967 145.738 223.335 145.284 223.335H144.463C143.103 223.335 142 222.232 142 220.872V181.463Z" fill="white"/>
<path id="Rectangle 4.1_2" d="M142 241.463C142 240.103 143.103 239 144.463 239H145.284C145.738 239 146.105 239.368 146.105 239.821V282.514C146.105 282.967 145.738 283.335 145.284 283.335H144.463C143.103 283.335 142 282.232 142 280.872V241.463Z" fill="white"/>
<g id="Rectangle 1006" filter="url(#filter1_dddd_4187:24145)">
<rect x="144" y="49" width="328" height="686" rx="48" fill="white"/>
</g>
<rect id="Rectangle 1007" x="289" y="67" width="36" height="4" rx="2" fill="#C4C4C4"/>
<circle id="Ellipse 176" cx="342" cy="69" r="4" fill="#C4C4C4"/>
<path id="Subtract" fill-rule="evenodd" clip-rule="evenodd" d="M222 67C222 66.6643 222.01 66.3309 222.029 66H222C222 62.134 218.866 59 215 59H192C171.013 59 154 76.0132 154 97V688C154 708.987 171.013 726 192 726H424C444.987 726 462 708.987 462 688V97C462 76.0132 444.987 59 424 59H402C398.134 59 395 62.134 395 66H394.971C394.99 66.3309 395 66.6643 395 67C395 76.3888 387.389 84 378 84H239C229.611 84 222 76.3888 222 67Z" fill="url(#paint1_linear_4187:24145)"/>
</g>
<g id="fignu2-screen1" class="fignu2-screen1">
<path id="Union" fill-rule="evenodd" clip-rule="evenodd" d="M274.655 361.893C274.655 361.906 274.655 361.913 274.656 361.913C274.657 361.913 274.66 361.905 274.664 361.891C274.683 361.826 274.741 361.624 274.926 361.304C275.168 360.887 275.562 360.381 276.143 359.904C277.275 358.975 279.19 358.1 282.235 358.323C294.666 359.236 301.461 367.763 301.461 373.933V413.086C301.461 413.49 301.39 413.64 301.369 413.674C301.329 413.699 301.173 413.769 300.769 413.769H293.211C292.807 413.769 292.652 413.699 292.611 413.674C292.59 413.64 292.519 413.49 292.519 413.086V376.945C292.519 374.375 291.263 371.86 289.461 370.016C287.654 368.166 285.122 366.813 282.355 366.813H274.655V361.893ZM301.381 413.666C301.381 413.666 301.378 413.667 301.374 413.671C301.378 413.669 301.38 413.667 301.381 413.666C301.381 413.666 301.381 413.666 301.381 413.666ZM292.599 413.666C292.6 413.666 292.602 413.667 292.606 413.671C292.601 413.668 292.599 413.666 292.599 413.666ZM282.355 370.101H274.655V413.086C274.655 414.117 274.47 415.276 273.594 416.108C272.738 416.923 271.599 417.057 270.675 417.057H262.98C262.12 417.057 261.062 416.894 260.216 416.156C259.325 415.379 259 414.263 259 413.086V376.534C259 374.496 260.142 372.106 261.744 370.281C263.369 368.432 265.774 366.813 268.613 366.813H271.367V361.886C271.367 361.163 271.677 360.356 272.079 359.66C272.514 358.908 273.164 358.095 274.058 357.362C275.876 355.871 278.633 354.762 282.476 355.044C296.153 356.048 304.749 365.605 304.749 373.933V413.086C304.749 414.056 304.531 415.131 303.741 415.953C302.94 416.788 301.845 417.057 300.769 417.057H293.211C292.136 417.057 291.041 416.788 290.239 415.953C289.45 415.131 289.231 414.056 289.231 413.086V376.945C289.231 375.419 288.455 373.69 287.11 372.314C285.772 370.944 284.044 370.101 282.355 370.101ZM268.613 370.101H271.367V413.086C271.367 413.418 271.336 413.611 271.308 413.713C271.2 413.741 271.005 413.769 270.675 413.769H262.98C262.562 413.769 262.411 413.697 262.38 413.679C262.352 413.631 262.288 413.474 262.288 413.086V376.534C262.288 375.56 262.932 373.912 264.215 372.451C265.476 371.015 267.055 370.101 268.613 370.101ZM262.393 413.696C262.393 413.697 262.389 413.693 262.383 413.683C262.391 413.691 262.394 413.696 262.393 413.696ZM341.289 421.848C341.289 421.835 341.288 421.829 341.287 421.829C341.286 421.829 341.284 421.836 341.28 421.851C341.261 421.915 341.203 422.117 341.018 422.437C340.776 422.855 340.382 423.361 339.801 423.837C338.668 424.766 336.754 425.642 333.709 425.418C321.277 424.506 314.483 415.978 314.483 409.808V370.655C314.483 370.251 314.554 370.101 314.574 370.067C314.615 370.042 314.77 369.972 315.175 369.972H322.732C323.137 369.972 323.292 370.042 323.333 370.067C323.353 370.101 323.425 370.251 323.425 370.655V406.797C323.425 409.367 324.681 411.882 326.482 413.725C328.29 415.576 330.822 416.928 333.588 416.928H341.289V421.848ZM314.57 370.07C314.565 370.074 314.563 370.076 314.563 370.075C314.563 370.075 314.565 370.073 314.57 370.07ZM323.344 370.075C323.344 370.076 323.342 370.074 323.337 370.07C323.342 370.073 323.345 370.075 323.344 370.075ZM333.588 413.64H341.289V370.655C341.289 369.625 341.474 368.466 342.349 367.633C343.206 366.819 344.345 366.684 345.269 366.684H352.964C353.823 366.684 354.881 366.848 355.727 367.585C356.619 368.362 356.944 369.478 356.944 370.655V407.207C356.944 409.245 355.802 411.635 354.2 413.46C352.575 415.31 350.169 416.928 347.331 416.928H344.576V421.856C344.576 422.578 344.267 423.385 343.865 424.082C343.43 424.834 342.78 425.646 341.886 426.379C340.068 427.87 337.311 428.979 333.468 428.697C319.79 427.693 311.195 418.136 311.195 409.808V370.655C311.195 369.685 311.413 368.611 312.202 367.788C313.004 366.954 314.099 366.684 315.175 366.684H322.732C323.808 366.684 324.903 366.954 325.705 367.789C326.494 368.611 326.712 369.685 326.712 370.655V406.797C326.712 408.323 327.489 410.052 328.834 411.428C330.172 412.797 331.9 413.64 333.588 413.64ZM347.331 413.64H344.576V370.655C344.576 370.324 344.608 370.131 344.636 370.029C344.744 370 344.939 369.972 345.269 369.972H352.964C353.382 369.972 353.533 370.045 353.563 370.062C353.592 370.11 353.656 370.268 353.656 370.655V407.207C353.656 408.181 353.012 409.83 351.729 411.29C350.468 412.726 348.889 413.64 347.331 413.64ZM353.55 370.045C353.551 370.044 353.555 370.048 353.561 370.058C353.553 370.05 353.55 370.045 353.55 370.045Z" fill="white"/>
</g>
<g id="fignu2-icon3" class="fignu2-icon3">
<g id="Rectangle 884" filter="url(#filter2_dddd_4187:24145)">
<rect x="437" y="106" width="140" height="140" rx="32.3077" fill="#FEFBFF"/>
</g>
<g id="Group 289">
<path id="Vector" d="M507 143V209" stroke="url(#paint2_linear_4187:24145)" stroke-width="5.96174" stroke-linecap="round" stroke-linejoin="round"/>
<path id="Vector_2" d="M522 155H499.5C496.715 155 494.045 156.106 492.075 158.075C490.106 160.044 489 162.715 489 165.5C489 168.285 490.106 170.955 492.075 172.924C494.045 174.894 496.715 176 499.5 176H514.5C517.285 176 519.955 177.106 521.925 179.075C523.894 181.044 525 183.715 525 186.5C525 189.285 523.894 191.955 521.925 193.924C519.955 195.894 517.285 197 514.5 197H489" stroke="url(#paint3_linear_4187:24145)" stroke-width="5.96174" stroke-linecap="round" stroke-linejoin="round"/>
</g>
</g>
<g id="fignu2-icon5" class="fignu2-icon5">
<g id="Rectangle 879" filter="url(#filter3_dddd_4187:24145)">
<rect x="36" y="186" width="140" height="140" rx="32.3077" fill="#FEFBFF"/>
</g>
<path id="Vector_3" d="M106 286C106 286 130 274 130 256V235L106 226L82 235V256C82 274 106 286 106 286Z" stroke="url(#paint4_linear_4187:24145)" stroke-width="5.96174" stroke-linecap="round" stroke-linejoin="round"/>
</g>
<g id="fignu2-screen2" class="fignu2-screen2">
<text id="Me ajuda" fill="#FBF9FC" xml:space="preserve" style="white-space: pre" font-family="Source Sans Pro" font-size="8.87422" letter-spacing="0em"><tspan x="217.329" y="368.568">Me ajuda</tspan></text>
<text id="Perfil" fill="#FBF9FC" xml:space="preserve" style="white-space: pre" font-family="Source Sans Pro" font-size="8.87422" letter-spacing="0em"><tspan x="217.329" y="444.742">Perfil</tspan></text>
<path id="Vector_4" d="M433.515 371.861L439.416 366.146L433.515 360.432" stroke="#FBF9FC" stroke-width="0.986024" stroke-linecap="round" stroke-linejoin="round"/>
<path id="Vector_5" d="M433.515 525.195L439.416 519.48L433.515 513.766" stroke="#FBF9FC" stroke-width="0.986024" stroke-linecap="round" stroke-linejoin="round"/>
<path id="Vector_6" d="M433.515 487.099L439.416 481.385L433.515 475.671" stroke="#FBF9FC" stroke-width="0.986024" stroke-linecap="round" stroke-linejoin="round"/>
<path id="Vector_7" d="M433.515 448.051L439.416 442.337L433.515 436.623" stroke="#FBF9FC" stroke-width="0.986024" stroke-linecap="round" stroke-linejoin="round"/>
<path id="Vector_8" d="M433.515 409.956L439.416 404.242L433.515 398.527" stroke="#FBF9FC" stroke-width="0.986024" stroke-linecap="round" stroke-linejoin="round"/>
<g id="Group 353">
<path id="Vector_9" d="M199.465 449.956V448.051C199.465 447.041 199.051 446.072 198.313 445.358C197.575 444.643 196.575 444.242 195.532 444.242H187.664C186.621 444.242 185.621 444.643 184.883 445.358C184.145 446.072 183.731 447.041 183.731 448.051V449.956" stroke="#FBF9FC" stroke-width="0.986024" stroke-linecap="round" stroke-linejoin="round"/>
<path id="Vector_10" d="M191.598 440.432C193.77 440.432 195.532 438.727 195.532 436.623C195.532 434.519 193.77 432.813 191.598 432.813C189.425 432.813 187.664 434.519 187.664 436.623C187.664 438.727 189.425 440.432 191.598 440.432Z" stroke="#FBF9FC" stroke-width="0.986024" stroke-linecap="round" stroke-linejoin="round"/>
</g>
<g id="Group 354">
<path id="Vector_11" d="M191.599 469.004V489.957" stroke="#FBF9FC" stroke-width="0.986024" stroke-linecap="round" stroke-linejoin="round"/>
<path id="Vector_12" d="M196.515 472.814H189.14C188.227 472.814 187.352 473.165 186.706 473.79C186.061 474.415 185.698 475.263 185.698 476.147C185.698 477.031 186.061 477.879 186.706 478.504C187.352 479.129 188.227 479.48 189.14 479.48H194.057C194.97 479.48 195.845 479.832 196.491 480.457C197.136 481.082 197.499 481.93 197.499 482.814C197.499 483.698 197.136 484.546 196.491 485.171C195.845 485.796 194.97 486.147 194.057 486.147H185.698" stroke="#FBF9FC" stroke-width="0.986024" stroke-linecap="round" stroke-linejoin="round"/>
</g>
<g id="Group 355">
<path id="Vector_13" d="M200.449 510.909H182.747C181.661 510.909 180.781 511.762 180.781 512.814V524.242C180.781 525.294 181.661 526.147 182.747 526.147H200.449C201.535 526.147 202.415 525.294 202.415 524.242V512.814C202.415 511.762 201.535 510.909 200.449 510.909Z" stroke="#FBF9FC" stroke-width="0.986024" stroke-linecap="round" stroke-linejoin="round"/>
<path id="Vector_14" d="M180.781 516.623H202.415" stroke="#FBF9FC" stroke-width="0.986024" stroke-linecap="round" stroke-linejoin="round"/>
</g>
<g id="Group 356">
<path id="Vector_15" d="M200.449 396.623H182.747C181.661 396.623 180.781 397.475 180.781 398.527V409.956C180.781 411.008 181.661 411.861 182.747 411.861H200.449C201.535 411.861 202.415 411.008 202.415 409.956V398.527C202.415 397.475 201.535 396.623 200.449 396.623Z" stroke="#FBF9FC" stroke-width="0.986024" stroke-linecap="round" stroke-linejoin="round"/>
<path id="Vector_16" d="M180.781 402.337H202.415" stroke="#FBF9FC" stroke-width="0.986024" stroke-linecap="round" stroke-linejoin="round"/>
</g>
<g id="Group 357">
<path id="Vector_17" d="M191.598 373.765C197.029 373.765 201.432 369.501 201.432 364.241C201.432 358.982 197.029 354.718 191.598 354.718C186.167 354.718 181.764 358.982 181.764 364.241C181.764 369.501 186.167 373.765 191.598 373.765Z" stroke="#FBF9FC" stroke-width="0.986024" stroke-linecap="round" stroke-linejoin="round"/>
<path id="Vector_18" d="M188.736 361.384C188.968 360.748 189.424 360.211 190.025 359.869C190.625 359.527 191.331 359.402 192.018 359.516C192.705 359.63 193.328 359.976 193.776 360.492C194.225 361.009 194.471 361.662 194.47 362.337C194.47 364.241 191.519 365.194 191.519 365.194" stroke="#FBF9FC" stroke-width="0.986024" stroke-linecap="round" stroke-linejoin="round"/>
<path id="Vector_19" d="M191.598 369.003H191.608" stroke="#FBF9FC" stroke-width="0.986024" stroke-linecap="round" stroke-linejoin="round"/>
</g>
<path id="Vector_20" d="M433.515 563.29L439.416 557.576L433.515 551.862" stroke="#FBF9FC" stroke-width="0.986024" stroke-linecap="round" stroke-linejoin="round"/>
<path id="Vector_21" d="M198.482 674.72C203.913 674.72 208.316 670.456 208.316 665.196C208.316 659.936 203.913 655.672 198.482 655.672C193.051 655.672 188.648 659.936 188.648 665.196C188.648 670.456 193.051 674.72 198.482 674.72Z" stroke="#3C3B3D" stroke-width="0.986024" stroke-linecap="round" stroke-linejoin="round"/>
<g id="Group 360">
<path id="Vector_22" d="M198.482 659.481V669.958" stroke="#3C3B3D" stroke-width="0.986024" stroke-linecap="round" stroke-linejoin="round"/>
<path id="Vector_23" d="M200.94 661.386H197.253C196.796 661.386 196.359 661.562 196.036 661.874C195.713 662.187 195.532 662.611 195.532 663.053C195.532 663.495 195.713 663.919 196.036 664.231C196.359 664.544 196.796 664.719 197.253 664.719H199.711C200.168 664.719 200.605 664.895 200.928 665.208C201.251 665.52 201.432 665.944 201.432 666.386C201.432 666.828 201.251 667.252 200.928 667.565C200.605 667.877 200.168 668.053 199.711 668.053H195.532" stroke="#3C3B3D" stroke-width="0.986024" stroke-linecap="round" stroke-linejoin="round"/>
</g>
<g id="Group 361">
<path id="Vector_24" d="M196.515 547.1H186.681C185.595 547.1 184.714 547.953 184.714 549.005V564.243C184.714 565.295 185.595 566.147 186.681 566.147H196.515C197.601 566.147 198.482 565.295 198.482 564.243V549.005C198.482 547.953 197.601 547.1 196.515 547.1Z" stroke="#FBF9FC" stroke-width="0.986024" stroke-linecap="round" stroke-linejoin="round"/>
<path id="Vector_25" d="M191.598 562.338H191.608" stroke="#FBF9FC" stroke-width="0.986024" stroke-linecap="round" stroke-linejoin="round"/>
</g>
<text id="Ativar a fun&#195;&#167;&#195;&#163;o d&#195;&#169;bito" fill="#FBF9FC" xml:space="preserve" style="white-space: pre" font-family="Source Sans Pro" font-size="8.87422" letter-spacing="0em"><tspan x="217.329" y="406.655">Ativar a fun&#xe7;&#xe3;o d&#xe9;bito</tspan></text>
<text id="Configurar NuConta" fill="#FBF9FC" xml:space="preserve" style="white-space: pre" font-family="Source Sans Pro" font-size="8.87422" letter-spacing="0em"><tspan x="217.329" y="482.829">Configurar NuConta</tspan></text>
<text id="Configurar cart&#195;&#163;o" fill="#FBF9FC" xml:space="preserve" style="white-space: pre" font-family="Source Sans Pro" font-size="8.87422" letter-spacing="0em"><tspan x="217.329" y="520.916">Configurar cart&#xe3;o</tspan></text>
<text id="sair do app" fill="#FBF9FC" xml:space="preserve" style="white-space: pre" font-family="Source Sans Pro" font-size="8.87422" font-weight="bold" letter-spacing="0em"><tspan x="281.421" y="610.42">SAIR DO APP</tspan></text>
<g id="Group 350">
<text id="Banco" fill="#FBF9FC" xml:space="preserve" style="white-space: pre" font-family="Source Sans Pro" font-size="11.8323" letter-spacing="0em"><tspan x="217.581" y="296.898">Banco</tspan></text>
<text id="260 - Nu Pagamentos S.A." fill="#FBF9FC" xml:space="preserve" style="white-space: pre" font-family="Source Sans Pro" font-size="11.8323" font-weight="bold" letter-spacing="0em"><tspan x="253.571" y="296.898">260 - Nu Pagamentos S.A.</tspan></text>
</g>
<g id="Group 351">
<text id="0001" fill="#FBF9FC" xml:space="preserve" style="white-space: pre" font-family="Source Sans Pro" font-size="11.8323" font-weight="bold" letter-spacing="0em"><tspan x="310.058" y="313.085">0001</tspan></text>
<text id="Ag&#195;&#170;ncia" fill="#FBF9FC" xml:space="preserve" style="white-space: pre" font-family="Source Sans Pro" font-size="11.8323" letter-spacing="0em"><tspan x="267.658" y="313.085">Ag&#xea;ncia</tspan></text>
</g>
<g id="Group 352">
<text id="77712444-0" fill="#FBF9FC" xml:space="preserve" style="white-space: pre" font-family="Source Sans Pro" font-size="11.8323" font-weight="bold" letter-spacing="0em"><tspan x="286.645" y="329.272">77712444-0</tspan></text>
<text id="Conta" fill="#FBF9FC" xml:space="preserve" style="white-space: pre" font-family="Source Sans Pro" font-size="11.8323" letter-spacing="0em"><tspan x="253.12" y="329.272">Conta</tspan></text>
</g>
<path id="Vector 48" d="M170.986 347.035H441.157" stroke="#BB71D2" stroke-width="0.807701"/>
<path id="Vector 49" d="M170.986 537.47H442.143" stroke="#BB71D2" stroke-width="0.807701"/>
<text id="Configurar App" fill="#FBF9FC" xml:space="preserve" style="white-space: pre" font-family="Source Sans Pro" font-size="8.87422" letter-spacing="0em"><tspan x="217.329" y="559.003">Configurar App</tspan></text>
<path id="Vector 50" d="M170.986 575.557H442.143" stroke="#BB71D2" stroke-width="0.807701"/>
<path id="Vector 51" d="M170.986 499.383H442.143" stroke="#BB71D2" stroke-width="0.807701"/>
<path id="Vector 52" d="M170.986 461.296H442.143" stroke="#BB71D2" stroke-width="0.807701"/>
<path id="Vector 53" d="M170.986 423.209H442.143" stroke="#BB71D2" stroke-width="0.807701"/>
<path id="Vector 54" d="M170 385.122H441.157" stroke="#BB71D2" stroke-width="0.807701"/>
<rect id="Rectangle 355" x="170.404" y="589.291" width="270.349" height="37.2793" rx="2.55422" stroke="#BB71D2" stroke-width="0.807701"/>
<path id="Vector_26" d="M313.697 162.335L307.797 156.621L301.896 162.335" stroke="#FBF9FC" stroke-width="0.986024" stroke-linecap="round" stroke-linejoin="round"/>
<g id="Group 358">
<rect id="Rectangle 396" x="262.004" y="182.309" width="91.7003" height="88.5522" fill="white"/>
<path id="Union_2" fill-rule="evenodd" clip-rule="evenodd" d="M318.963 188.644H346.995V194.26H318.963V188.644ZM308.078 199.443V194.26H313.446V188.644H302.263V193.828V194.26V199.443V199.443V205.059H307.631V210.53H301.965V221.329H307.78V215.858H313.446V205.059H313.446V199.443H308.078ZM335.961 199.587H330.146V205.203H335.961V199.587ZM274.38 221.041V226.657H268.565V221.041H274.38ZM274.38 226.657H279.748V221.329H290.931V226.513H307.78V231.84V232.128V237.456H301.965V232.128H285.414V226.945H280.196V232.272H274.38V226.657ZM330.146 226.657H330.146V221.329H318.963V226.945H324.331V232.272H330.146V226.657ZM341.329 248.255V242.639H347.144V248.255H341.329ZM347.144 259.198V253.582H341.329V259.198H347.144ZM335.514 259.054H341.329V264.669H335.514V259.054ZM318.963 248.111V253.726H324.331V258.91H307.78V264.525H330.146V264.381V258.91V253.582H324.778V248.111H318.963ZM313.595 242.639H318.963V248.255L313.595 248.255V253.87H307.78V248.255L313.148 248.255V243.071H307.78V237.456L313.148 237.456V231.84H318.963V237.456L313.595 237.456V242.639ZM341.329 247.967H335.961V243.071H341.329V237.456V237.456V226.657H335.514V237.456H318.963V243.071H330.146V253.582L335.514 253.582H341.329V247.967ZM307.78 253.438V258.91H301.965V253.438V253.294V242.639H307.78V253.294V253.438ZM279.748 248.111H285.563V253.726H279.748V248.111ZM285.563 199.587H279.748V205.203H285.563V199.587ZM307.78 221.041H313.595V226.657H307.78V221.041ZM290.782 210.53H268.565V216.146H296.597V210.962H296.597V194.26H296.598V188.644H268.566V194.26H268.565V210.53H274.38V194.26H290.782V210.53ZM268.565 237.456H296.597V243.071L296.597 243.071V258.766H290.782V243.071H274.38V258.766H268.565V243.071V237.456ZM296.597 258.766H268.565V264.381H296.597V258.766ZM346.995 210.53H318.963V216.146H346.995V210.53ZM346.995 210.53V194.26H341.18V210.53H346.995ZM318.963 194.26H324.778V210.53H318.963V194.26ZM347.144 232.128V221.329H341.329V232.128H347.144Z" fill="#82269E"/>
</g>
<path id="Rectangle 356" d="M176 646.93C176 644.207 178.207 642 180.93 642H431.07C433.793 642 436 644.207 436 646.93V726H180.93C178.207 726 176 723.793 176 721.07V646.93Z" fill="#FBF9FC"/>
<text id="NuConta" fill="#3C3B3D" xml:space="preserve" style="white-space: pre" font-family="Source Sans Pro" font-size="11.8323" letter-spacing="0em"><tspan x="228.889" y="669.41">NuConta</tspan></text>
<g id="Group 359">
<path id="Vector_27" d="M395.162 668.053C395.162 668.053 399.096 660.434 405.98 660.434C412.864 660.434 416.797 668.053 416.797 668.053C416.797 668.053 412.864 675.672 405.98 675.672C399.096 675.672 395.162 668.053 395.162 668.053Z" stroke="#3C3B3D" stroke-width="0.986024" stroke-linecap="round" stroke-linejoin="round"/>
<path id="Vector_28" d="M405.98 670.91C407.609 670.91 408.93 669.631 408.93 668.053C408.93 666.475 407.609 665.196 405.98 665.196C404.35 665.196 403.03 666.475 403.03 668.053C403.03 669.631 404.35 670.91 405.98 670.91Z" stroke="#3C3B3D" stroke-width="0.986024" stroke-linecap="round" stroke-linejoin="round"/>
</g>
<g id="Group 362">
<g id="Group 32">
<rect id="Rectangle 421" x="399.744" y="78.7265" width="2.57108" height="3.19219" rx="0.986024" fill="white"/>
<rect id="Rectangle 422" x="403.417" y="77.3077" width="2.57108" height="4.61094" rx="0.986024" fill="white"/>
<rect id="Rectangle 423" x="407.09" y="75.5344" width="2.57108" height="6.38438" rx="0.986024" fill="white"/>
<rect id="Rectangle 424" x="410.763" y="73.7609" width="2.57108" height="8.15781" rx="0.986024" fill="white"/>
</g>
<g id="Group 34">
<path id="Vector 36" d="M449.045 79.8929V77.1506C449.834 77.6077 449.992 78.0647 449.992 78.5218C449.992 78.9788 449.834 79.4359 449.045 79.8929Z" fill="white" fill-opacity="0.5"/>
<rect id="Rectangle 413" x="433.584" y="75.0285" width="14.5143" height="6.98634" rx="1.57764" stroke="white" stroke-opacity="0.5" stroke-width="0.631056"/>
<rect id="Rectangle 414" x="434.531" y="75.9318" width="12.6211" height="5.17983" rx="0.946583" fill="#FBF9FC"/>
</g>
<g id="Group 33">
<path id="Subtract_2" fill-rule="evenodd" clip-rule="evenodd" d="M427.407 77.3177L428.591 76.1748C427.236 74.6944 425.255 73.7609 423.048 73.7609C420.834 73.7609 418.848 74.7 417.492 76.1883L418.674 77.3297C419.82 76.2972 421.357 75.6652 423.048 75.6652C424.731 75.6652 426.263 76.2922 427.407 77.3177Z" fill="white"/>
<path id="Subtract_3" fill-rule="evenodd" clip-rule="evenodd" d="M427.717 80.1285C427.717 80.1283 427.717 80.1281 427.717 80.1279L427.716 80.1285L427.717 80.1285ZM420.7 79.5493L419.656 78.4501C420.597 77.5555 421.906 77.0261 423.329 77.0857C424.628 77.14 425.787 77.6748 426.632 78.5048L425.477 79.5272C424.881 79.0247 424.11 78.7069 423.258 78.6712C422.281 78.6303 421.378 78.9679 420.7 79.5493Z" fill="white"/>
<path id="Vector 37" d="M423.048 81.8543L421.569 80.426C422.04 79.9938 422.39 79.7913 423.048 79.7913C423.705 79.7913 424.052 79.9534 424.527 80.426L423.048 81.8543Z" fill="white"/>
</g>
<text id="22:31" fill="white" xml:space="preserve" style="white-space: pre" font-family="Source Sans Pro" font-size="12.8183" font-weight="bold" letter-spacing="0em"><tspan x="178.874" y="82.5569">22:31</tspan></text>
</g>
<g id="Group 363">
<text id="Gabriel Cavalheiro" fill="#FBF9FC" xml:space="preserve" style="white-space: pre" font-family="Sora" font-size="14.5386" font-weight="bold" letter-spacing="0em"><tspan x="264" y="135.124">Gabriel Cavalheiro</tspan></text>
<path id="Union_3" fill-rule="evenodd" clip-rule="evenodd" d="M226.442 120.824V119.412L226.442 119.411C226.447 119.397 226.463 119.351 226.509 119.274C226.58 119.155 226.701 119.003 226.885 118.858C227.239 118.577 227.857 118.297 228.865 118.368C233.064 118.666 235.273 121.435 235.273 123.334V136.211C235.273 136.231 235.272 136.249 235.271 136.263C235.25 136.265 235.222 136.267 235.187 136.267H232.613C232.577 136.267 232.549 136.266 232.528 136.263C232.527 136.249 232.526 136.231 232.526 136.211V124.325C232.526 123.417 232.069 122.547 231.433 121.919C230.794 121.287 229.897 120.824 228.915 120.824H226.442ZM228.915 122.242H226.442V136.211C226.442 136.57 226.375 137.014 226.025 137.335C225.691 137.643 225.257 137.685 224.937 137.685H222.316C222.013 137.685 221.613 137.631 221.286 137.356C220.935 137.06 220.812 136.635 220.812 136.211V124.19C220.812 123.456 221.231 122.63 221.792 122.013C222.365 121.383 223.22 120.824 224.235 120.824H225.024V119.372C225.024 119.085 225.148 118.786 225.292 118.546C225.45 118.281 225.685 117.999 226.004 117.746C226.654 117.231 227.628 116.859 228.965 116.954C233.658 117.286 236.691 120.465 236.691 123.334V136.211C236.691 136.558 236.61 136.966 236.298 137.279C235.985 137.594 235.569 137.685 235.187 137.685H232.613C232.23 137.685 231.814 137.594 231.501 137.279C231.189 136.966 231.108 136.558 231.108 136.211V124.325C231.108 123.885 230.873 123.359 230.437 122.928C230.005 122.501 229.45 122.242 228.915 122.242ZM224.235 122.242H225.024V136.211C225.024 136.231 225.023 136.249 225.023 136.265C224.998 136.266 224.97 136.267 224.937 136.267H222.316C222.282 136.267 222.254 136.266 222.232 136.263C222.231 136.249 222.23 136.232 222.23 136.211V124.19C222.23 123.932 222.419 123.431 222.841 122.967C223.25 122.517 223.752 122.242 224.235 122.242ZM248.837 137.643V139.055L248.837 139.056C248.832 139.07 248.816 139.116 248.771 139.193C248.699 139.312 248.578 139.464 248.395 139.609C248.04 139.89 247.422 140.17 246.414 140.099C242.215 139.801 240.006 137.032 240.006 135.133V122.256C240.006 122.236 240.007 122.218 240.008 122.204C240.03 122.201 240.057 122.2 240.093 122.2H242.667C242.702 122.2 242.73 122.201 242.752 122.204C242.753 122.218 242.753 122.236 242.753 122.256V134.142C242.753 135.05 243.211 135.92 243.846 136.548C244.486 137.18 245.382 137.643 246.364 137.643H248.837ZM246.364 136.225H248.837L248.837 122.256C248.837 121.897 248.904 121.453 249.254 121.132C249.589 120.824 250.023 120.782 250.342 120.782H252.963C253.267 120.782 253.666 120.836 253.993 121.111C254.345 121.407 254.468 121.832 254.468 122.256V134.277C254.468 135.011 254.049 135.837 253.488 136.454C252.914 137.084 252.059 137.643 251.044 137.643H250.256V139.095C250.256 139.382 250.131 139.681 249.988 139.921C249.829 140.186 249.594 140.468 249.275 140.721C248.625 141.236 247.652 141.608 246.314 141.513C241.621 141.181 238.588 138.002 238.588 135.133V122.256C238.588 121.909 238.67 121.501 238.982 121.188C239.294 120.873 239.71 120.782 240.093 120.782H242.667C243.05 120.782 243.466 120.873 243.778 121.188C244.09 121.501 244.171 121.909 244.171 122.256V134.142C244.171 134.582 244.407 135.108 244.843 135.539C245.275 135.966 245.829 136.225 246.364 136.225ZM251.044 136.225H250.256V122.256C250.256 122.236 250.256 122.218 250.257 122.202C250.281 122.201 250.309 122.2 250.342 122.2H252.963C252.998 122.2 253.026 122.201 253.048 122.204C253.049 122.218 253.049 122.235 253.049 122.256V134.277C253.049 134.535 252.86 135.036 252.439 135.5C252.029 135.95 251.527 136.225 251.044 136.225Z" fill="white"/>
</g>
</g>
<g id="fignu-screen3" class="fignu2-screen3">
<path id="Vector_29" d="M303.946 156.485L309.944 162.19L315.942 156.485" stroke="#FBF9FC" stroke-width="0.986245" stroke-linecap="round" stroke-linejoin="round"/>
<rect id="Rectangle 426" x="177.053" y="244.92" width="264.667" height="251.043" rx="4.93123" fill="#FEFBFF"/>
<rect id="Rectangle 427" x="177.053" y="438.908" width="264.667" height="57.0552" rx="4.93123" fill="#EDEAEF"/>
<text id="Saldo dispon&#195;&#173;vel" fill="#3C3B3D" xml:space="preserve" style="white-space: pre" font-family="Source Sans Pro" font-size="11.8349" letter-spacing="0em"><tspan x="190.483" y="345.456">Saldo dispon&#xed;vel</tspan></text>
<text id="Transfer&#195;&#170;ncia de R$ 500,00 feita para Juliana ontem" fill="#3C3B3D" xml:space="preserve" style="white-space: pre" font-family="Source Sans Pro" font-size="8.87621" letter-spacing="0em"><tspan x="233.998" y="465.729">Transfer&#xea;ncia de R$ 500,00 feita para Juliana&#10;</tspan><tspan x="233.998" y="477.729">ontem</tspan></text>
<text id="NuConta_2" fill="#3C3B3D" xml:space="preserve" style="white-space: pre" font-family="Source Sans Pro" font-size="11.8349" letter-spacing="0em"><tspan x="231.535" y="272.252">NuConta</tspan></text>
<text id="R$ 2.150,59" fill="#3C3B3D" xml:space="preserve" style="white-space: pre" font-family="Sora" font-size="23.6699" font-weight="bold" letter-spacing="0em"><tspan x="190.483" y="376.766">R$ 2.150,59</tspan></text>
<g id="Group 333">
<path id="Vector_30" d="M399.911 270.595C399.911 270.595 403.909 262.988 410.907 262.988C417.904 262.988 421.903 270.595 421.903 270.595C421.903 270.595 417.904 278.202 410.907 278.202C403.909 278.202 399.911 270.595 399.911 270.595Z" stroke="#3C3B3D" stroke-width="0.986245" stroke-linecap="round" stroke-linejoin="round"/>
<path id="Vector_31" d="M410.907 273.448C412.563 273.448 413.906 272.171 413.906 270.595C413.906 269.02 412.563 267.742 410.907 267.742C409.251 267.742 407.908 269.02 407.908 270.595C407.908 272.171 409.251 273.448 410.907 273.448Z" stroke="#3C3B3D" stroke-width="0.986245" stroke-linecap="round" stroke-linejoin="round"/>
</g>
<g id="Group 334">
<g id="Group 13">
<path id="Vector_32" d="M199.984 262.037V272.497" stroke="#3C3B3D" stroke-width="0.986245" stroke-linecap="round" stroke-linejoin="round"/>
<path id="Vector_33" d="M202.483 263.939H198.734C198.27 263.939 197.825 264.114 197.497 264.426C197.169 264.738 196.985 265.161 196.985 265.603C196.985 266.044 197.169 266.467 197.497 266.779C197.825 267.091 198.27 267.267 198.734 267.267H201.233C201.697 267.267 202.142 267.442 202.47 267.754C202.798 268.066 202.983 268.49 202.983 268.931C202.983 269.372 202.798 269.796 202.47 270.108C202.142 270.42 201.697 270.595 201.233 270.595H196.985" stroke="#3C3B3D" stroke-width="0.986245" stroke-linecap="round" stroke-linejoin="round"/>
</g>
<path id="Vector_34" d="M199.984 277.251C205.505 277.251 209.98 272.994 209.98 267.742C209.98 262.491 205.505 258.233 199.984 258.233C194.463 258.233 189.987 262.491 189.987 267.742C189.987 272.994 194.463 277.251 199.984 277.251Z" stroke="#3C3B3D" stroke-width="0.986245" stroke-linecap="round" stroke-linejoin="round"/>
</g>
<g id="Group 335">
<g id="Group 14">
<path id="Vector_35" d="M206.981 463.632V474.092" stroke="#3C3B3D" stroke-width="0.986245" stroke-linecap="round" stroke-linejoin="round"/>
<path id="Vector_36" d="M209.481 465.534H205.732C205.268 465.534 204.823 465.709 204.495 466.021C204.167 466.333 203.983 466.756 203.983 467.198C203.983 467.639 204.167 468.062 204.495 468.374C204.823 468.686 205.268 468.862 205.732 468.862H208.231C208.695 468.862 209.14 469.037 209.468 469.349C209.796 469.661 209.98 470.085 209.98 470.526C209.98 470.967 209.796 471.391 209.468 471.703C209.14 472.015 208.695 472.19 208.231 472.19H203.983" stroke="#3C3B3D" stroke-width="0.986245" stroke-linecap="round" stroke-linejoin="round"/>
</g>
<path id="Vector_37" d="M206.981 459.828C201.46 459.828 196.985 464.086 196.985 469.337C196.985 474.589 201.46 478.847 206.981 478.847C212.502 478.847 216.978 474.589 216.978 469.337C216.978 468.166 216.755 467.045 216.348 466.009" stroke="#3C3B3D" stroke-width="0.986245" stroke-linecap="round" stroke-linejoin="round"/>
<g id="Group 15">
<path id="Vector_38" d="M217.977 460.779L213.979 456.975L209.98 460.779" stroke="#3C3B3D" stroke-width="0.986245" stroke-linecap="round" stroke-linejoin="round"/>
<path id="Vector_39" d="M213.979 464.583V456.975" stroke="#3C3B3D" stroke-width="0.986245" stroke-linecap="round" stroke-linejoin="round"/>
</g>
</g>
<path id="Vector_40" d="M418.904 474.092L424.902 468.386L418.904 462.681" stroke="#3C3B3D" stroke-width="0.986245" stroke-linecap="round" stroke-linejoin="round"/>
<ellipse id="Ellipse 16" cx="294.348" cy="512.129" rx="3.00758" ry="2.85276" fill="#FEFBFF"/>
<ellipse id="Ellipse 17" cx="310.389" cy="512.129" rx="3.00758" ry="2.85276" fill="#BB71D2"/>
<ellipse id="Ellipse 18" cx="326.429" cy="512.129" rx="3.00758" ry="2.85276" fill="#BB71D2"/>
<rect id="Rectangle 428" x="259.45" y="684.245" width="100.253" height="4.7546" rx="2.3773" fill="#EDEAEF"/>
<g id="Group 336">
<g id="Group 32_2">
<rect id="Rectangle 421_2" x="401.619" y="78.7137" width="2.61411" height="3.18798" rx="0.986245" fill="white"/>
<rect id="Rectangle 422_2" x="405.353" y="77.2968" width="2.61411" height="4.60487" rx="0.986245" fill="white"/>
<rect id="Rectangle 423_2" x="409.088" y="75.5256" width="2.61411" height="6.37597" rx="0.986245" fill="white"/>
<rect id="Rectangle 424_2" x="412.822" y="73.7545" width="2.61411" height="8.14707" rx="0.986245" fill="white"/>
</g>
<g id="Group 34_2">
<path id="Vector 36_2" d="M451.745 79.8785V77.1398C452.547 77.5963 452.708 78.0527 452.708 78.5092C452.708 78.9656 452.547 79.422 451.745 79.8785Z" fill="white" fill-opacity="0.5"/>
<rect id="Rectangle 413_2" x="436.02" y="75.021" width="14.7676" height="6.97616" rx="1.57799" stroke="white" stroke-opacity="0.5" stroke-width="0.631197"/>
<rect id="Rectangle 414_2" x="436.988" y="75.9227" width="12.8323" height="5.17301" rx="0.946796" fill="#FBF9FC"/>
</g>
<g id="Group 33_2">
<path id="Subtract_4" fill-rule="evenodd" clip-rule="evenodd" d="M429.745 77.3065L430.948 76.1653C429.571 74.6868 427.556 73.7545 425.313 73.7545C423.062 73.7545 421.042 74.6924 419.664 76.1787L420.866 77.3187C422.031 76.2875 423.594 75.6564 425.313 75.6564C427.024 75.6564 428.582 76.2825 429.745 77.3065Z" fill="white"/>
<path id="Subtract_5" fill-rule="evenodd" clip-rule="evenodd" d="M430.06 80.1138C430.06 80.1136 430.06 80.1134 430.06 80.1131L430.059 80.1138L430.06 80.1138ZM422.926 79.5354L421.865 78.4377C422.822 77.5442 424.152 77.0155 425.599 77.075C426.92 77.1293 428.099 77.6633 428.957 78.4921L427.783 79.5132C427.177 79.0114 426.393 78.694 425.527 78.6584C424.533 78.6175 423.615 78.9547 422.926 79.5354Z" fill="white"/>
<path id="Vector 37_2" d="M425.313 81.8374L423.809 80.411C424.288 79.9793 424.644 79.777 425.313 79.777C425.981 79.777 426.333 79.939 426.816 80.411L425.313 81.8374Z" fill="white"/>
</g>
<text id="22:31_2" fill="white" xml:space="preserve" style="white-space: pre" font-family="Source Sans Pro" font-size="12.8212" font-weight="bold" letter-spacing="0em"><tspan x="177.053" y="82.5579">22:31</tspan></text>
</g>
<g id="Group 337">
<text id="Gabriel Cavalheiro_2" fill="#FBF9FC" xml:space="preserve" style="white-space: pre" font-family="Sora" font-size="14.5386" font-weight="bold" letter-spacing="0em"><tspan x="264.767" y="135.045">Gabriel Cavalheiro</tspan></text>
<path id="Union_4" fill-rule="evenodd" clip-rule="evenodd" d="M226.573 120.883V119.476C226.579 119.461 226.595 119.416 226.64 119.343C226.712 119.223 226.836 119.072 227.023 118.926C227.386 118.644 228.019 118.362 229.05 118.434C233.334 118.732 235.574 121.505 235.574 123.391V136.248C235.574 136.267 235.573 136.284 235.572 136.297C235.548 136.301 235.516 136.303 235.474 136.303H232.857C232.816 136.303 232.783 136.301 232.759 136.297C232.758 136.284 232.758 136.267 232.758 136.248V124.38C232.758 123.469 232.291 122.599 231.646 121.973C230.996 121.342 230.089 120.883 229.099 120.883H226.573ZM229.099 122.302H226.573V136.248C226.573 136.609 226.504 137.055 226.149 137.375C225.812 137.679 225.378 137.721 225.055 137.721H222.391C222.086 137.721 221.685 137.667 221.357 137.395C221 137.101 220.874 136.675 220.874 136.248V124.245C220.874 123.508 221.302 122.681 221.871 122.066C222.454 121.436 223.319 120.883 224.342 120.883H225.155V119.435C225.155 119.145 225.283 118.845 225.429 118.605C225.59 118.34 225.829 118.059 226.152 117.807C226.811 117.295 227.795 116.925 229.148 117.019C233.903 117.35 236.992 120.515 236.992 123.391V136.248C236.992 136.598 236.908 137.007 236.591 137.32C236.276 137.631 235.858 137.721 235.474 137.721H232.857C232.473 137.721 232.056 137.631 231.741 137.32C231.424 137.007 231.34 136.598 231.34 136.248V124.38C231.34 123.946 231.103 123.422 230.658 122.99C230.219 122.564 229.651 122.302 229.099 122.302ZM224.342 122.302H225.155V136.248C225.155 136.267 225.155 136.284 225.154 136.3C225.126 136.302 225.094 136.303 225.055 136.303H222.391C222.35 136.303 222.318 136.301 222.293 136.298C222.292 136.284 222.292 136.267 222.292 136.248V124.245C222.292 123.993 222.482 123.494 222.911 123.03C223.327 122.58 223.842 122.302 224.342 122.302ZM249.362 137.679V139.086C249.356 139.101 249.34 139.146 249.295 139.22C249.223 139.339 249.099 139.49 248.912 139.636C248.549 139.918 247.916 140.2 246.885 140.128C242.601 139.83 240.361 137.057 240.361 135.171V122.314C240.361 122.295 240.362 122.278 240.363 122.265C240.387 122.262 240.419 122.259 240.461 122.259H243.077C243.119 122.259 243.152 122.262 243.175 122.265C243.177 122.278 243.177 122.295 243.177 122.314V134.182C243.177 135.093 243.644 135.963 244.289 136.589C244.938 137.22 245.845 137.679 246.836 137.679H249.362ZM246.836 136.26H249.362V122.314C249.362 121.953 249.431 121.507 249.786 121.187C250.123 120.883 250.557 120.841 250.879 120.841H253.544C253.849 120.841 254.249 120.895 254.578 121.167C254.934 121.461 255.061 121.887 255.061 122.314V134.317C255.061 135.054 254.633 135.881 254.064 136.496C253.481 137.126 252.616 137.679 251.593 137.679H250.78V139.127C250.78 139.417 250.652 139.718 250.506 139.957C250.345 140.222 250.106 140.503 249.783 140.755C249.124 141.267 248.14 141.637 246.787 141.543C242.032 141.212 238.943 138.047 238.943 135.171V122.314C238.943 121.964 239.027 121.556 239.344 121.242C239.659 120.931 240.077 120.841 240.461 120.841H243.077C243.462 120.841 243.879 120.931 244.194 121.242C244.511 121.556 244.595 121.964 244.595 122.314V134.182C244.595 134.616 244.832 135.14 245.277 135.572C245.716 135.998 246.284 136.26 246.836 136.26ZM251.593 136.26H250.78V122.314C250.78 122.295 250.78 122.278 250.781 122.262C250.808 122.26 250.841 122.259 250.879 122.259H253.544C253.585 122.259 253.617 122.261 253.642 122.264C253.643 122.278 253.643 122.295 253.643 122.314V134.317C253.643 134.569 253.453 135.068 253.023 135.533C252.608 135.982 252.093 136.26 251.593 136.26Z" fill="white"/>
</g>
<g id="component-menu" clip-path="url(#clip1_4187:24145)">
<rect id="Rectangle 426_2" x="167.835" y="570.274" width="82.0556" height="89.7483" rx="2.4231" fill="#9C4FB4"/>
<text id="Transferir" fill="#EDEAEF" xml:space="preserve" style="white-space: pre" font-family="Source Sans Pro" font-size="11.8349" letter-spacing="0em"><tspan x="176.711" y="650.046">Transferir</tspan></text>
<rect id="Rectangle 427_2" x="353.249" y="570.274" width="82.0556" height="89.7483" rx="2.4231" fill="#9C4FB4"/>
<text id="Cobrar" fill="#EDEAEF" xml:space="preserve" style="white-space: pre" font-family="Source Sans Pro" font-size="11.8349" letter-spacing="0em"><tspan x="361.964" y="650.165">Cobrar</tspan></text>
<rect id="Rectangle 428_2" x="260.542" y="570.274" width="82.0556" height="89.7483" rx="2.4231" fill="#9C4FB4"/>
<text id="Depositar" fill="#EDEAEF" xml:space="preserve" style="white-space: pre" font-family="Source Sans Pro" font-size="11.8349" letter-spacing="0em"><tspan x="269.418" y="650.046">Depositar </tspan></text>
<g id="Group 328">
<g id="Group 323">
<path id="Vector_41" d="M186.485 585.068V595.917" stroke="#EDEAEF" stroke-width="0.807701" stroke-linecap="round" stroke-linejoin="round"/>
<path id="Vector_42" d="M188.944 587.04H185.256C184.8 587.04 184.362 587.222 184.039 587.546C183.716 587.87 183.535 588.309 183.535 588.766C183.535 589.224 183.716 589.663 184.039 589.987C184.362 590.31 184.8 590.492 185.256 590.492H187.715C188.171 590.492 188.609 590.674 188.932 590.998C189.254 591.322 189.436 591.761 189.436 592.218C189.436 592.676 189.254 593.115 188.932 593.439C188.609 593.762 188.171 593.944 187.715 593.944H183.535" stroke="#EDEAEF" stroke-width="0.807701" stroke-linecap="round" stroke-linejoin="round"/>
</g>
<path id="Vector_43" d="M186.485 581.123C181.054 581.123 176.651 585.539 176.651 590.985C176.651 596.432 181.054 600.848 186.485 600.848C191.917 600.848 196.319 596.432 196.319 590.985C196.319 589.771 196.101 588.608 195.7 587.534" stroke="#EDEAEF" stroke-width="0.807701" stroke-linecap="round" stroke-linejoin="round"/>
<g id="Group 324">
<path id="Vector_44" d="M197.303 582.109L193.369 578.164L189.436 582.109" stroke="#EDEAEF" stroke-width="0.807701" stroke-linecap="round" stroke-linejoin="round"/>
<path id="Vector_45" d="M193.369 586.054V578.164" stroke="#EDEAEF" stroke-width="0.807701" stroke-linecap="round" stroke-linejoin="round"/>
</g>
</g>
<g id="Group 329">
<g id="Group 325">
<path id="Vector_46" d="M278.925 585.068V595.917" stroke="#EDEAEF" stroke-width="0.807701" stroke-linecap="round" stroke-linejoin="round"/>
<path id="Vector_47" d="M281.384 587.04H277.696C277.24 587.04 276.802 587.222 276.479 587.546C276.156 587.87 275.975 588.309 275.975 588.766C275.975 589.224 276.156 589.663 276.479 589.987C276.802 590.31 277.24 590.492 277.696 590.492H280.155C280.611 590.492 281.049 590.674 281.371 590.998C281.694 591.322 281.876 591.761 281.876 592.218C281.876 592.676 281.694 593.115 281.371 593.439C281.049 593.762 280.611 593.944 280.155 593.944H275.975" stroke="#EDEAEF" stroke-width="0.807701" stroke-linecap="round" stroke-linejoin="round"/>
</g>
<path id="Vector_48" d="M278.925 581.123C273.494 581.123 269.091 585.539 269.091 590.985C269.091 596.432 273.494 600.848 278.925 600.848C284.356 600.848 288.759 596.432 288.759 590.985C288.759 589.771 288.54 588.608 288.14 587.534" stroke="#EDEAEF" stroke-width="0.807701" stroke-linecap="round" stroke-linejoin="round"/>
<g id="Group 327">
<path id="Vector_49" d="M281.875 582.109L285.809 586.054L289.743 582.109" stroke="#EDEAEF" stroke-width="0.807701" stroke-linecap="round" stroke-linejoin="round"/>
<path id="Vector_50" d="M285.809 578.164V586.054" stroke="#EDEAEF" stroke-width="0.807701" stroke-linecap="round" stroke-linejoin="round"/>
</g>
</g>
<g id="Group 330">
<g id="Group 326">
<path id="Vector_51" d="M371.589 584.082V592.136" stroke="#EDEAEF" stroke-width="0.807701" stroke-linecap="round" stroke-linejoin="round"/>
<path id="Vector_52" d="M373.414 585.546H370.676C370.337 585.546 370.012 585.681 369.773 585.921C369.533 586.162 369.398 586.488 369.398 586.828C369.398 587.167 369.533 587.493 369.773 587.734C370.012 587.974 370.337 588.109 370.676 588.109H372.501C372.84 588.109 373.165 588.244 373.405 588.484C373.644 588.725 373.779 589.05 373.779 589.39C373.779 589.73 373.644 590.056 373.405 590.296C373.165 590.537 372.84 590.672 372.501 590.672H369.398" stroke="#EDEAEF" stroke-width="0.807701" stroke-linecap="round" stroke-linejoin="round"/>
</g>
<path id="Vector_53" d="M380.216 592.958C380.216 593.481 380.008 593.983 379.64 594.353C379.271 594.723 378.77 594.93 378.249 594.93H366.448L362.514 598.875V583.095C362.514 582.572 362.722 582.071 363.09 581.701C363.459 581.331 363.96 581.123 364.481 581.123H378.249C378.77 581.123 379.271 581.331 379.64 581.701C380.008 582.071 380.216 582.572 380.216 583.095V592.958Z" stroke="#EDEAEF" stroke-width="0.807701" stroke-linecap="round" stroke-linejoin="round"/>
</g>
<rect id="Rectangle 429" x="445.956" y="570.274" width="16.7662" height="89.7483" rx="2.4231" fill="#9C4FB4"/>
</g>
</g>
<g id="fignu2-screen4" class="fignu2-screen4">
<path id="Vector_54" d="M304.543 157.379L310.444 163.077L316.344 157.379" stroke="#FBF9FC" stroke-width="0.986024" stroke-linecap="round" stroke-linejoin="round"/>
<rect id="Rectangle 427_3" x="179.706" y="245.666" width="260.31" height="250.68" rx="4.93012" fill="#FEFBFF"/>
<text id="Fatura atual" fill="#54B9C7" xml:space="preserve" style="white-space: pre" font-family="Source Sans Pro" font-size="11.8323" letter-spacing="0em"><tspan x="194.539" y="350.023">FATURA ATUAL </tspan></text>
<text id="Limite dispon&#195;&#173;vel" fill="#3C3B3D" xml:space="preserve" style="white-space: pre" font-family="Source Sans Pro" font-size="8.87422" letter-spacing="0em"><tspan x="194.539" y="394.696">Limite dispon&#xed;vel</tspan></text>
<text id="Cart&#195;&#163;o de cr&#195;&#169;dito" fill="#3C3B3D" xml:space="preserve" style="white-space: pre" font-family="Source Sans Pro" font-size="11.8323" letter-spacing="0em"><tspan x="233.308" y="272.241">Cart&#xe3;o de cr&#xe9;dito</tspan></text>
<g id="R$ 150,64">
<text fill="#54B9C7" xml:space="preserve" style="white-space: pre" font-family="Sora" font-size="23.6646" letter-spacing="0em"><tspan x="192.923" y="377.419">R$</tspan><tspan x="273.3" y="377.419">,64</tspan></text>
<text fill="#54B9C7" xml:space="preserve" style="white-space: pre" font-family="Sora" font-size="23.6646" font-weight="bold" letter-spacing="0em"><tspan x="224.931" y="377.419"> 150</tspan></text>
</g>
<text id="R$ 150,64_2" fill="#9EC249" xml:space="preserve" style="white-space: pre" font-family="Sora" font-size="8.87422" font-weight="bold" letter-spacing="0em"><tspan x="262.386" y="394.559">R$ 150,64</tspan></text>
<g id="Group 324_2">
<path id="Vector_55" d="M398.95 271.35C398.95 271.35 402.884 263.752 409.767 263.752C416.651 263.752 420.585 271.35 420.585 271.35C420.585 271.35 416.651 278.948 409.767 278.948C402.884 278.948 398.95 271.35 398.95 271.35Z" stroke="#3C3B3D" stroke-width="0.986024" stroke-linecap="round" stroke-linejoin="round"/>
<path id="Vector_56" d="M409.767 274.199C411.397 274.199 412.718 272.923 412.718 271.35C412.718 269.776 411.397 268.5 409.767 268.5C408.138 268.5 406.817 269.776 406.817 271.35C406.817 272.923 408.138 274.199 409.767 274.199Z" stroke="#3C3B3D" stroke-width="0.986024" stroke-linecap="round" stroke-linejoin="round"/>
</g>
<ellipse id="Ellipse 16_2" cx="295.071" cy="512.488" rx="2.95807" ry="2.84863" fill="#BB71D2"/>
<ellipse id="Ellipse 17_2" cx="310.848" cy="512.488" rx="2.95807" ry="2.84863" fill="#EDEAEF"/>
<ellipse id="Ellipse 18_2" cx="326.624" cy="512.488" rx="2.95807" ry="2.84863" fill="#BB71D2"/>
<g id="Group 325_2">
<path id="Vector_57" d="M215.054 260.902H197.353C196.266 260.902 195.386 261.753 195.386 262.802V274.199C195.386 275.248 196.266 276.098 197.353 276.098H215.054C216.14 276.098 217.021 275.248 217.021 274.199V262.802C217.021 261.753 216.14 260.902 215.054 260.902Z" stroke="#3C3B3D" stroke-width="0.986024" stroke-linecap="round" stroke-linejoin="round"/>
<path id="Vector_58" d="M195.386 266.601H217.021" stroke="#3C3B3D" stroke-width="0.986024" stroke-linecap="round" stroke-linejoin="round"/>
</g>
<path id="Rectangle 428_3" d="M435.086 245.666V245.666C437.809 245.666 440.017 247.873 440.017 250.596V305.487H435.086V245.666Z" fill="#F3AE3C"/>
<rect id="Rectangle 429_2" x="435.086" y="305.487" width="4.93012" height="59.8213" fill="#54B9C7"/>
<rect id="Rectangle 430" x="435.086" y="365.308" width="4.93012" height="85.459" fill="#9EC249"/>
<path id="Rectangle 431" d="M179.706 439.373H440.017V491.415C440.017 494.138 437.809 496.345 435.087 496.345H184.636C181.914 496.345 179.706 494.138 179.706 491.415V439.373Z" fill="#EDEAEF"/>
<text id="Transfer&#195;&#170;ncia de R$ 500,00 feita para Juliana ontem_2" fill="#3C3B3D" xml:space="preserve" style="white-space: pre" font-family="Source Sans Pro" font-size="9" letter-spacing="0em"><tspan x="238.868" y="467.113">Transfer&#xea;ncia de R$ 500,00 feita para Juliana&#10;</tspan><tspan x="238.868" y="480.113">ontem</tspan></text>
<g id="Group 326_2">
<path id="Vector_59" d="M209.153 464.15V474.598" stroke="#3C3B3D" stroke-width="0.986024" stroke-linecap="round" stroke-linejoin="round"/>
<path id="Vector_60" d="M211.612 466.05H207.924C207.468 466.05 207.03 466.225 206.707 466.537C206.384 466.848 206.203 467.271 206.203 467.712C206.203 468.153 206.384 468.576 206.707 468.887C207.03 469.199 207.468 469.374 207.924 469.374H210.383C210.839 469.374 211.277 469.549 211.599 469.861C211.922 470.173 212.104 470.595 212.104 471.036C212.104 471.477 211.922 471.9 211.599 472.211C211.277 472.523 210.839 472.698 210.383 472.698H206.203" stroke="#3C3B3D" stroke-width="0.986024" stroke-linecap="round" stroke-linejoin="round"/>
</g>
<path id="Vector_61" d="M209.153 460.351C203.722 460.351 199.319 464.604 199.319 469.849C199.319 475.094 203.722 479.346 209.153 479.346C214.585 479.346 218.987 475.094 218.987 469.849C218.987 468.679 218.769 467.559 218.368 466.525" stroke="#3C3B3D" stroke-width="0.986024" stroke-linecap="round" stroke-linejoin="round"/>
<g id="Group 327_2">
<path id="Vector_62" d="M219.971 461.301L216.037 457.502L212.104 461.301" stroke="#3C3B3D" stroke-width="0.986024" stroke-linecap="round" stroke-linejoin="round"/>
<path id="Vector_63" d="M216.037 465.1V457.502" stroke="#3C3B3D" stroke-width="0.986024" stroke-linecap="round" stroke-linejoin="round"/>
</g>
<path id="Vector_64" d="M417.635 474.598L423.535 468.899L417.635 463.2" stroke="#3C3B3D" stroke-width="0.986024" stroke-linecap="round" stroke-linejoin="round"/>
<g id="Group 328_2">
<g id="Group 32_3">
<rect id="Rectangle 421_3" x="400.576" y="79.6996" width="2.57108" height="3.18337" rx="0.986024" fill="white"/>
<rect id="Rectangle 422_3" x="404.249" y="78.2849" width="2.57108" height="4.5982" rx="0.986024" fill="white"/>
<rect id="Rectangle 423_3" x="407.922" y="76.5163" width="2.57108" height="6.36674" rx="0.986024" fill="white"/>
<rect id="Rectangle 424_3" x="411.595" y="74.7477" width="2.57108" height="8.13528" rx="0.986024" fill="white"/>
</g>
<g id="Group 34_3">
<path id="Vector 36_3" d="M449.877 80.8627V78.1281C450.666 78.5838 450.824 79.0396 450.824 79.4954C450.824 79.9512 450.666 80.407 449.877 80.8627Z" fill="white" fill-opacity="0.5"/>
<rect id="Rectangle 413_3" x="434.416" y="76.0127" width="14.5143" height="6.9653" rx="1.57764" stroke="white" stroke-opacity="0.5" stroke-width="0.631056"/>
<rect id="Rectangle 414_3" x="435.363" y="76.9127" width="12.6211" height="5.16552" rx="0.946583" fill="#FBF9FC"/>
</g>
<g id="Group 33_3">
<path id="Subtract_6" fill-rule="evenodd" clip-rule="evenodd" d="M428.239 78.2947L429.423 77.1551C428.068 75.6787 426.087 74.7477 423.88 74.7477C421.666 74.7477 419.68 75.6843 418.324 77.1684L419.507 78.3069C420.652 77.2771 422.189 76.6469 423.88 76.6469C425.564 76.6469 427.096 77.2721 428.239 78.2947Z" fill="white"/>
<path id="Subtract_7" fill-rule="evenodd" clip-rule="evenodd" d="M421.532 80.5203L420.489 79.4242C421.43 78.5319 422.738 78.0039 424.162 78.0633C425.461 78.1175 426.621 78.6512 427.465 79.4794L426.311 80.5C425.715 79.9977 424.944 79.6801 424.09 79.6445C423.113 79.6037 422.21 79.9404 421.532 80.5203Z" fill="white"/>
<path id="Vector 37_3" d="M423.88 82.8188L422.401 81.3945C422.872 80.9634 423.222 80.7615 423.88 80.7615C424.537 80.7615 424.884 80.9232 425.359 81.3945L423.88 82.8188Z" fill="white"/>
</g>
<text id="22:31_3" fill="white" xml:space="preserve" style="white-space: pre" font-family="Source Sans Pro" font-size="12.8183" font-weight="bold" letter-spacing="0em"><tspan x="179.706" y="83.5569">22:31</tspan></text>
</g>
<g id="Group 329_2">
<text id="Gabriel Cavalheiro_3" fill="#FBF9FC" xml:space="preserve" style="white-space: pre" font-family="Sora" font-size="14.5386" font-weight="bold" letter-spacing="0em"><tspan x="266" y="135.982">Gabriel Cavalheiro</tspan></text>
<path id="Union_5" fill-rule="evenodd" clip-rule="evenodd" d="M229.246 121.821V120.415C229.251 120.4 229.267 120.354 229.312 120.279C229.384 120.16 229.505 120.009 229.688 119.864C230.043 119.584 230.661 119.304 231.669 119.375C235.87 119.672 238.077 122.435 238.077 124.326V137.167C238.077 137.186 238.077 137.203 238.076 137.217C238.054 137.219 238.026 137.221 237.991 137.221H235.417C235.381 137.221 235.353 137.219 235.332 137.217C235.331 137.203 235.33 137.186 235.33 137.167V125.313C235.33 124.407 234.872 123.539 234.237 122.913C233.597 122.282 232.701 121.821 231.719 121.821H229.246ZM231.719 123.239H229.246V137.167C229.246 137.525 229.179 137.969 228.829 138.29C228.494 138.597 228.061 138.639 227.741 138.639H225.121C224.817 138.639 224.418 138.585 224.091 138.31C223.739 138.015 223.616 137.591 223.616 137.167V125.179C223.616 124.446 224.036 123.621 224.597 123.006C225.17 122.377 226.025 121.821 227.039 121.821H227.828V120.374C227.828 120.088 227.953 119.789 228.096 119.549C228.255 119.285 228.49 119.003 228.809 118.751C229.459 118.238 230.432 117.866 231.769 117.961C236.461 118.293 239.495 121.462 239.495 124.326V137.167C239.495 137.514 239.414 137.921 239.101 138.234C238.789 138.548 238.373 138.639 237.991 138.639H235.417C235.034 138.639 234.619 138.548 234.306 138.234C233.994 137.921 233.912 137.514 233.912 137.167V125.313C233.912 124.876 233.678 124.353 233.241 123.923C232.81 123.497 232.255 123.239 231.719 123.239ZM227.039 123.239H227.828V137.167C227.828 137.186 227.828 137.203 227.827 137.219C227.803 137.22 227.774 137.221 227.741 137.221H225.121C225.086 137.221 225.058 137.219 225.036 137.217C225.035 137.203 225.034 137.186 225.034 137.167V125.179C225.034 124.923 225.223 124.424 225.644 123.961C226.054 123.513 226.556 123.239 227.039 123.239ZM251.642 138.597V140.003C251.637 140.017 251.621 140.063 251.575 140.139C251.504 140.258 251.383 140.409 251.2 140.553C250.845 140.833 250.227 141.113 249.218 141.042C245.017 140.745 242.811 137.983 242.811 136.092V123.25C242.811 123.231 242.811 123.214 242.812 123.2C242.834 123.198 242.862 123.196 242.897 123.196H245.471C245.506 123.196 245.534 123.198 245.556 123.2C245.557 123.214 245.558 123.231 245.558 123.25V135.104C245.558 136.01 246.016 136.878 246.651 137.505C247.291 138.135 248.187 138.597 249.168 138.597H251.642ZM249.168 137.179H251.642L251.642 123.25C251.642 122.892 251.709 122.448 252.059 122.127C252.394 121.821 252.827 121.778 253.146 121.778H255.767C256.071 121.778 256.47 121.833 256.796 122.107C257.148 122.402 257.272 122.827 257.272 123.25V135.239C257.272 135.971 256.852 136.796 256.291 137.411C255.718 138.04 254.863 138.597 253.849 138.597H253.06V140.043C253.06 140.33 252.935 140.628 252.791 140.868C252.633 141.133 252.398 141.414 252.079 141.666C251.428 142.18 250.455 142.551 249.118 142.456C244.427 142.125 241.392 138.956 241.392 136.092V123.25C241.392 122.903 241.474 122.496 241.787 122.183C242.099 121.869 242.515 121.778 242.897 121.778H245.471C245.854 121.778 246.269 121.869 246.582 122.183C246.894 122.496 246.976 122.904 246.976 123.25V135.104C246.976 135.541 247.21 136.065 247.646 136.495C248.078 136.92 248.633 137.179 249.168 137.179ZM253.849 137.179H253.06V123.25C253.06 123.231 253.06 123.214 253.061 123.198C253.085 123.197 253.114 123.196 253.146 123.196H255.767C255.802 123.196 255.83 123.198 255.852 123.2C255.853 123.214 255.854 123.231 255.854 123.25V135.239C255.854 135.494 255.665 135.993 255.243 136.456C254.834 136.904 254.332 137.179 253.849 137.179Z" fill="white"/>
</g>
<g id="component-menu_2" clip-path="url(#clip2_4187:24145)">
<rect id="Rectangle 426_3" x="170.835" y="570.662" width="82.0556" height="89.7483" rx="2.4231" fill="#9C4FB4"/>
<text id="Transferir_2" fill="#EDEAEF" xml:space="preserve" style="white-space: pre" font-family="Source Sans Pro" font-size="11.8349" letter-spacing="0em"><tspan x="179.711" y="650.434">Transferir</tspan></text>
<rect id="Rectangle 427_4" x="356.249" y="570.662" width="82.0556" height="89.7483" rx="2.4231" fill="#9C4FB4"/>
<text id="Cobrar_2" fill="#EDEAEF" xml:space="preserve" style="white-space: pre" font-family="Source Sans Pro" font-size="11.8349" letter-spacing="0em"><tspan x="364.964" y="650.553">Cobrar</tspan></text>
<rect id="Rectangle 428_4" x="263.542" y="570.662" width="82.0556" height="89.7483" rx="2.4231" fill="#9C4FB4"/>
<text id="Depositar_2" fill="#EDEAEF" xml:space="preserve" style="white-space: pre" font-family="Source Sans Pro" font-size="11.8349" letter-spacing="0em"><tspan x="272.418" y="650.434">Depositar </tspan></text>
<g id="Group 328_3">
<g id="Group 323_2">
<path id="Vector_65" d="M189.485 585.456V596.305" stroke="#EDEAEF" stroke-width="0.807701" stroke-linecap="round" stroke-linejoin="round"/>
<path id="Vector_66" d="M191.944 587.428H188.256C187.8 587.428 187.362 587.61 187.039 587.934C186.716 588.258 186.535 588.697 186.535 589.154C186.535 589.612 186.716 590.051 187.039 590.375C187.362 590.698 187.8 590.88 188.256 590.88H190.715C191.171 590.88 191.609 591.062 191.932 591.386C192.254 591.709 192.436 592.148 192.436 592.606C192.436 593.064 192.254 593.503 191.932 593.827C191.609 594.15 191.171 594.332 190.715 594.332H186.535" stroke="#EDEAEF" stroke-width="0.807701" stroke-linecap="round" stroke-linejoin="round"/>
</g>
<path id="Vector_67" d="M189.485 581.511C184.054 581.511 179.651 585.927 179.651 591.373C179.651 596.82 184.054 601.236 189.485 601.236C194.917 601.236 199.319 596.82 199.319 591.373C199.319 590.159 199.101 588.996 198.7 587.922" stroke="#EDEAEF" stroke-width="0.807701" stroke-linecap="round" stroke-linejoin="round"/>
<g id="Group 324_3">
<path id="Vector_68" d="M200.303 582.497L196.369 578.552L192.436 582.497" stroke="#EDEAEF" stroke-width="0.807701" stroke-linecap="round" stroke-linejoin="round"/>
<path id="Vector_69" d="M196.369 586.442V578.552" stroke="#EDEAEF" stroke-width="0.807701" stroke-linecap="round" stroke-linejoin="round"/>
</g>
</g>
<g id="Group 329_3">
<g id="Group 325_3">
<path id="Vector_70" d="M281.925 585.456V596.305" stroke="#EDEAEF" stroke-width="0.807701" stroke-linecap="round" stroke-linejoin="round"/>
<path id="Vector_71" d="M284.384 587.428H280.696C280.24 587.428 279.802 587.61 279.479 587.934C279.156 588.258 278.975 588.697 278.975 589.154C278.975 589.612 279.156 590.051 279.479 590.375C279.802 590.698 280.24 590.88 280.696 590.88H283.155C283.611 590.88 284.049 591.062 284.371 591.386C284.694 591.709 284.876 592.148 284.876 592.606C284.876 593.064 284.694 593.503 284.371 593.827C284.049 594.15 283.611 594.332 283.155 594.332H278.975" stroke="#EDEAEF" stroke-width="0.807701" stroke-linecap="round" stroke-linejoin="round"/>
</g>
<path id="Vector_72" d="M281.925 581.511C276.494 581.511 272.091 585.927 272.091 591.373C272.091 596.82 276.494 601.236 281.925 601.236C287.356 601.236 291.759 596.82 291.759 591.373C291.759 590.159 291.54 588.996 291.14 587.922" stroke="#EDEAEF" stroke-width="0.807701" stroke-linecap="round" stroke-linejoin="round"/>
<g id="Group 327_3">
<path id="Vector_73" d="M284.875 582.497L288.809 586.442L292.743 582.497" stroke="#EDEAEF" stroke-width="0.807701" stroke-linecap="round" stroke-linejoin="round"/>
<path id="Vector_74" d="M288.809 578.552V586.442" stroke="#EDEAEF" stroke-width="0.807701" stroke-linecap="round" stroke-linejoin="round"/>
</g>
</g>
<g id="Group 330_2">
<g id="Group 326_3">
<path id="Vector_75" d="M374.589 584.47V592.524" stroke="#EDEAEF" stroke-width="0.807701" stroke-linecap="round" stroke-linejoin="round"/>
<path id="Vector_76" d="M376.414 585.934H373.676C373.337 585.934 373.012 586.069 372.773 586.309C372.533 586.55 372.398 586.876 372.398 587.216C372.398 587.555 372.533 587.881 372.773 588.122C373.012 588.362 373.337 588.497 373.676 588.497H375.501C375.84 588.497 376.165 588.632 376.405 588.872C376.644 589.112 376.779 589.438 376.779 589.778C376.779 590.118 376.644 590.444 376.405 590.684C376.165 590.925 375.84 591.06 375.501 591.06H372.398" stroke="#EDEAEF" stroke-width="0.807701" stroke-linecap="round" stroke-linejoin="round"/>
</g>
<path id="Vector_77" d="M383.216 593.346C383.216 593.869 383.008 594.371 382.64 594.741C382.271 595.111 381.77 595.318 381.249 595.318H369.448L365.514 599.263V583.483C365.514 582.96 365.722 582.459 366.09 582.089C366.459 581.719 366.96 581.511 367.481 581.511H381.249C381.77 581.511 382.271 581.719 382.64 582.089C383.008 582.459 383.216 582.96 383.216 583.483V593.346Z" stroke="#EDEAEF" stroke-width="0.807701" stroke-linecap="round" stroke-linejoin="round"/>
</g>
<rect id="Rectangle 429_3" x="448.956" y="570.662" width="16.7662" height="89.7483" rx="2.4231" fill="#9C4FB4"/>
</g>
</g>
<g id="fignu-screen5" class="fignu2-screen5">
<path id="Vector_78" d="M304.351 155.377L310.251 161.14L316.152 155.377" stroke="#FBF9FC" stroke-width="0.986024" stroke-linecap="round" stroke-linejoin="round"/>
<rect id="Rectangle 428_5" x="179.514" y="244.672" width="260.31" height="253.543" rx="4.93012" fill="#FEFBFF"/>
<text id="Nubank rewards" fill="#211F21" xml:space="preserve" style="white-space: pre" font-family="Sora" font-size="11.8323" font-weight="bold" letter-spacing="0em"><tspan x="246.04" y="350.68">NUBANK REWARDS</tspan></text>
<text id="Acumule pontos que nunca expiram e troque por passagens a&#195;&#169;reas ou servi&#195;&#167;os que voc&#195;&#170; realmente usa." fill="#3C3B3D" xml:space="preserve" style="white-space: pre" font-family="Source Sans Pro" font-size="9" letter-spacing="0em"><tspan x="220.816" y="376.177">Acumule pontos que nunca expiram e troque por&#10;</tspan><tspan x="219.731" y="389.177">passagens a&#xe9;reas ou servi&#xe7;os que voc&#xea; realmente&#10;</tspan><tspan x="304.55" y="402.177">usa.</tspan></text>
<ellipse id="Ellipse 16_3" cx="294.879" cy="514.541" rx="2.95807" ry="2.88117" fill="#BB71D2"/>
<ellipse id="Ellipse 17_3" cx="310.655" cy="514.541" rx="2.95807" ry="2.88117" fill="#BB71D2"/>
<ellipse id="Ellipse 18_3" cx="326.432" cy="514.541" rx="2.95807" ry="2.88117" fill="#EDEAEF"/>
<text id="ative o seu rewards" fill="#82269E" xml:space="preserve" style="white-space: pre" font-family="Source Sans Pro" font-size="8.87422" font-weight="bold" letter-spacing="0em"><tspan x="265.298" y="467.993">ATIVE O SEU REWARDS</tspan></text>
<rect id="Rectangle 429_4" x="213.443" y="446.757" width="197.383" height="37.6078" rx="2.55422" stroke="#82269E" stroke-width="0.807701"/>
<g id="Group 323_3">
<path id="Vector_79" d="M319.102 283.137V292.743H303.368V283.137" stroke="url(#paint5_linear_4187:24145)" stroke-width="0.986024" stroke-linecap="round" stroke-linejoin="round"/>
<path id="Vector_80" d="M321.069 278.334H301.401V283.137H321.069V278.334Z" stroke="url(#paint6_linear_4187:24145)" stroke-width="0.986024" stroke-linecap="round" stroke-linejoin="round"/>
<path id="Vector_81" d="M311.235 292.743V278.334" stroke="url(#paint7_linear_4187:24145)" stroke-width="0.986024" stroke-linecap="round" stroke-linejoin="round"/>
<path id="Vector_82" d="M311.235 278.334H306.81C306.158 278.334 305.532 278.081 305.071 277.631C304.61 277.18 304.351 276.569 304.351 275.933C304.351 275.296 304.61 274.685 305.071 274.234C305.532 273.784 306.158 273.531 306.81 273.531C310.251 273.531 311.235 278.334 311.235 278.334Z" stroke="url(#paint8_linear_4187:24145)" stroke-width="0.986024" stroke-linecap="round" stroke-linejoin="round"/>
<path id="Vector_83" d="M311.235 278.334H315.66C316.312 278.334 316.938 278.081 317.399 277.631C317.86 277.18 318.119 276.569 318.119 275.933C318.119 275.296 317.86 274.685 317.399 274.234C316.938 273.784 316.312 273.531 315.66 273.531C312.219 273.531 311.235 278.334 311.235 278.334Z" stroke="url(#paint9_linear_4187:24145)" stroke-width="0.986024" stroke-linecap="round" stroke-linejoin="round"/>
</g>
<g id="Group 324_4">
<g id="Group 32_4">
<rect id="Rectangle 421_4" x="400.384" y="76.8104" width="2.57108" height="3.21973" rx="0.986024" fill="white"/>
<rect id="Rectangle 422_4" x="404.057" y="75.3795" width="2.57108" height="4.65072" rx="0.986024" fill="white"/>
<rect id="Rectangle 423_4" x="407.73" y="73.5907" width="2.57108" height="6.43946" rx="0.986024" fill="white"/>
<rect id="Rectangle 424_4" x="411.403" y="71.8019" width="2.57108" height="8.22819" rx="0.986024" fill="white"/>
</g>
<g id="Group 34_4">
<path id="Vector 36_4" d="M449.685 77.9869V75.2209C450.474 75.6819 450.632 76.1429 450.632 76.6039C450.632 77.0649 450.474 77.5259 449.685 77.9869Z" fill="white" fill-opacity="0.5"/>
<rect id="Rectangle 413_4" x="434.224" y="73.0779" width="14.5143" height="7.05205" rx="1.57764" stroke="white" stroke-opacity="0.5" stroke-width="0.631056"/>
<rect id="Rectangle 414_4" x="435.171" y="73.9915" width="12.6211" height="5.22451" rx="0.946583" fill="#FBF9FC"/>
</g>
<g id="Group 33_4">
<path id="Subtract_8" fill-rule="evenodd" clip-rule="evenodd" d="M428.047 75.3895L429.231 74.2368C427.876 72.7436 425.894 71.8019 423.687 71.8019C421.474 71.8019 419.487 72.7492 418.132 74.2503L419.314 75.4017C420.459 74.3602 421.997 73.7228 423.687 73.7228C425.371 73.7228 426.903 74.3552 428.047 75.3895Z" fill="white"/>
<path id="Subtract_9" fill-rule="evenodd" clip-rule="evenodd" d="M428.357 78.2246C428.357 78.2243 428.357 78.2239 428.357 78.2236L428.356 78.2245L428.357 78.2246ZM421.34 77.6406L420.296 76.532C421.237 75.6294 422.546 75.0953 423.97 75.1554C425.268 75.2102 426.428 75.7495 427.272 76.5865L426.117 77.6179C425.521 77.1111 424.75 76.7906 423.898 76.7546C422.921 76.7134 422.017 77.0539 421.34 77.6406Z" fill="white"/>
<path id="Vector 37_4" d="M423.687 79.9652L422.208 78.5247C422.68 78.0887 423.03 77.8844 423.687 77.8844C424.345 77.8844 424.691 78.048 425.166 78.5247L423.687 79.9652Z" fill="white"/>
</g>
<text id="22:31_4" fill="white" xml:space="preserve" style="white-space: pre" font-family="Source Sans Pro" font-size="12.8183" font-weight="bold" letter-spacing="0em"><tspan x="180" y="80.5569">22:31</tspan></text>
</g>
<g id="Group 325_4">
<text id="Gabriel Cavalheiro_4" fill="#FBF9FC" xml:space="preserve" style="white-space: pre" font-family="Sora" font-size="14.5386" font-weight="bold" letter-spacing="0em"><tspan x="266.696" y="133.647">Gabriel Cavalheiro</tspan></text>
<path id="Union_6" fill-rule="evenodd" clip-rule="evenodd" d="M229.054 119.42V117.987L229.054 117.985C229.06 117.97 229.076 117.923 229.122 117.845C229.194 117.723 229.316 117.57 229.499 117.424C229.853 117.141 230.47 116.858 231.477 116.93C235.671 117.23 237.885 120.021 237.885 121.945V134.933C237.885 134.957 237.884 134.976 237.883 134.992C237.862 134.994 237.834 134.996 237.799 134.996H235.225C235.189 134.996 235.162 134.994 235.14 134.992C235.139 134.976 235.138 134.957 235.138 134.933V122.944C235.138 122.033 234.683 121.158 234.048 120.525C233.409 119.888 232.512 119.42 231.527 119.42H229.054ZM231.527 120.838H229.054V134.933C229.054 135.293 228.988 135.738 228.64 136.061C228.305 136.371 227.87 136.414 227.549 136.414H224.928C224.623 136.414 224.223 136.359 223.896 136.081C223.546 135.783 223.424 135.358 223.424 134.933V122.808C223.424 122.073 223.841 121.241 224.402 120.619C224.974 119.984 225.83 119.42 226.847 119.42H227.636V117.949C227.636 117.663 227.759 117.363 227.902 117.122C228.061 116.855 228.295 116.571 228.614 116.316C229.264 115.796 230.238 115.42 231.578 115.516C236.276 115.852 239.303 119.06 239.303 121.945V134.933C239.303 135.281 239.222 135.689 238.912 136.004C238.6 136.321 238.183 136.414 237.799 136.414H235.225C234.84 136.414 234.423 136.321 234.111 136.004C233.801 135.689 233.72 135.281 233.72 134.933V122.944C233.72 122.497 233.483 121.964 233.046 121.529C232.614 121.098 232.06 120.838 231.527 120.838ZM226.847 120.838H227.636V134.933C227.636 134.956 227.635 134.976 227.634 134.994C227.61 134.995 227.582 134.996 227.549 134.996H224.928C224.894 134.996 224.866 134.994 224.844 134.992C224.843 134.976 224.842 134.957 224.842 134.933V122.808C224.842 122.544 225.033 122.036 225.455 121.568C225.865 121.113 226.367 120.838 226.847 120.838ZM251.45 136.372V137.805L251.449 137.806C251.444 137.821 251.428 137.869 251.381 137.947C251.309 138.068 251.188 138.221 251.005 138.368C250.65 138.651 250.033 138.933 249.027 138.861C244.833 138.561 242.618 135.771 242.618 133.846V120.859C242.618 120.835 242.619 120.816 242.621 120.8C242.642 120.797 242.67 120.796 242.705 120.796H245.279C245.314 120.796 245.342 120.797 245.363 120.8C245.365 120.816 245.366 120.835 245.366 120.859V132.847C245.366 133.758 245.821 134.634 246.456 135.267C247.095 135.904 247.992 136.372 248.976 136.372H251.45ZM248.976 134.954H251.45L251.45 120.859C251.45 120.499 251.516 120.054 251.864 119.731C252.199 119.421 252.634 119.377 252.954 119.377H255.575C255.88 119.377 256.28 119.433 256.607 119.711C256.958 120.008 257.08 120.434 257.08 120.859V132.984C257.08 133.719 256.663 134.551 256.102 135.173C255.529 135.808 254.674 136.372 253.657 136.372H252.868V137.843C252.868 138.129 252.745 138.428 252.601 138.67C252.443 138.937 252.209 139.221 251.89 139.476C251.239 139.995 250.265 140.371 248.926 140.276C244.227 139.94 241.2 136.731 241.2 133.846V120.859C241.2 120.511 241.281 120.102 241.592 119.787C241.904 119.471 242.321 119.377 242.705 119.377H245.279C245.663 119.377 246.08 119.471 246.392 119.787C246.703 120.102 246.784 120.511 246.784 120.859V132.847C246.784 133.295 247.021 133.827 247.457 134.262C247.89 134.694 248.444 134.954 248.976 134.954ZM253.657 134.954H252.868V120.859C252.868 120.836 252.868 120.816 252.869 120.798C252.893 120.796 252.922 120.796 252.954 120.796H255.575C255.61 120.796 255.638 120.797 255.659 120.799C255.661 120.815 255.662 120.835 255.662 120.859V132.984C255.662 133.247 255.47 133.755 255.049 134.223C254.638 134.678 254.137 134.954 253.657 134.954Z" fill="white"/>
</g>
<g id="component-menu_3" clip-path="url(#clip3_4187:24145)">
<rect id="Rectangle 426_4" x="173.835" y="569.676" width="82.0556" height="89.7483" rx="2.4231" fill="#9C4FB4"/>
<text id="Transferir_3" fill="#EDEAEF" xml:space="preserve" style="white-space: pre" font-family="Source Sans Pro" font-size="11.8349" letter-spacing="0em"><tspan x="182.711" y="649.448">Transferir</tspan></text>
<rect id="Rectangle 427_5" x="359.249" y="569.676" width="82.0556" height="89.7483" rx="2.4231" fill="#9C4FB4"/>
<text id="Cobrar_3" fill="#EDEAEF" xml:space="preserve" style="white-space: pre" font-family="Source Sans Pro" font-size="11.8349" letter-spacing="0em"><tspan x="367.964" y="649.567">Cobrar</tspan></text>
<rect id="Rectangle 428_6" x="266.542" y="569.676" width="82.0556" height="89.7483" rx="2.4231" fill="#9C4FB4"/>
<text id="Depositar_3" fill="#EDEAEF" xml:space="preserve" style="white-space: pre" font-family="Source Sans Pro" font-size="11.8349" letter-spacing="0em"><tspan x="275.418" y="649.448">Depositar </tspan></text>
<g id="Group 328_4">
<g id="Group 323_4">
<path id="Vector_84" d="M192.485 584.47V595.319" stroke="#EDEAEF" stroke-width="0.807701" stroke-linecap="round" stroke-linejoin="round"/>
<path id="Vector_85" d="M194.944 586.442H191.256C190.8 586.442 190.362 586.624 190.039 586.948C189.716 587.271 189.535 587.71 189.535 588.168C189.535 588.626 189.716 589.065 190.039 589.389C190.362 589.712 190.8 589.894 191.256 589.894H193.715C194.171 589.894 194.609 590.076 194.932 590.4C195.254 590.723 195.436 591.162 195.436 591.62C195.436 592.078 195.254 592.517 194.932 592.841C194.609 593.164 194.171 593.346 193.715 593.346H189.535" stroke="#EDEAEF" stroke-width="0.807701" stroke-linecap="round" stroke-linejoin="round"/>
</g>
<path id="Vector_86" d="M192.485 580.525C187.054 580.525 182.651 584.94 182.651 590.387C182.651 595.834 187.054 600.25 192.485 600.25C197.917 600.25 202.319 595.834 202.319 590.387C202.319 589.173 202.101 588.01 201.7 586.935" stroke="#EDEAEF" stroke-width="0.807701" stroke-linecap="round" stroke-linejoin="round"/>
<g id="Group 324_5">
<path id="Vector_87" d="M203.303 581.511L199.369 577.566L195.436 581.511" stroke="#EDEAEF" stroke-width="0.807701" stroke-linecap="round" stroke-linejoin="round"/>
<path id="Vector_88" d="M199.369 585.456V577.566" stroke="#EDEAEF" stroke-width="0.807701" stroke-linecap="round" stroke-linejoin="round"/>
</g>
</g>
<g id="Group 329_4">
<g id="Group 325_5">
<path id="Vector_89" d="M284.925 584.47V595.319" stroke="#EDEAEF" stroke-width="0.807701" stroke-linecap="round" stroke-linejoin="round"/>
<path id="Vector_90" d="M287.384 586.442H283.696C283.24 586.442 282.802 586.624 282.479 586.948C282.156 587.271 281.975 587.71 281.975 588.168C281.975 588.626 282.156 589.065 282.479 589.389C282.802 589.712 283.24 589.894 283.696 589.894H286.155C286.611 589.894 287.049 590.076 287.371 590.4C287.694 590.723 287.876 591.162 287.876 591.62C287.876 592.078 287.694 592.517 287.371 592.841C287.049 593.164 286.611 593.346 286.155 593.346H281.975" stroke="#EDEAEF" stroke-width="0.807701" stroke-linecap="round" stroke-linejoin="round"/>
</g>
<path id="Vector_91" d="M284.925 580.525C279.494 580.525 275.091 584.94 275.091 590.387C275.091 595.834 279.494 600.25 284.925 600.25C290.356 600.25 294.759 595.834 294.759 590.387C294.759 589.173 294.54 588.01 294.14 586.935" stroke="#EDEAEF" stroke-width="0.807701" stroke-linecap="round" stroke-linejoin="round"/>
<g id="Group 327_4">
<path id="Vector_92" d="M287.875 581.511L291.809 585.456L295.743 581.511" stroke="#EDEAEF" stroke-width="0.807701" stroke-linecap="round" stroke-linejoin="round"/>
<path id="Vector_93" d="M291.809 577.566V585.456" stroke="#EDEAEF" stroke-width="0.807701" stroke-linecap="round" stroke-linejoin="round"/>
</g>
</g>
<g id="Group 330_3">
<g id="Group 326_4">
<path id="Vector_94" d="M377.589 583.484V591.538" stroke="#EDEAEF" stroke-width="0.807701" stroke-linecap="round" stroke-linejoin="round"/>
<path id="Vector_95" d="M379.414 584.948H376.676C376.337 584.948 376.012 585.083 375.773 585.323C375.533 585.564 375.398 585.89 375.398 586.229C375.398 586.569 375.533 586.895 375.773 587.135C376.012 587.376 376.337 587.511 376.676 587.511H378.501C378.84 587.511 379.165 587.646 379.405 587.886C379.644 588.126 379.779 588.452 379.779 588.792C379.779 589.132 379.644 589.458 379.405 589.698C379.165 589.939 378.84 590.074 378.501 590.074H375.398" stroke="#EDEAEF" stroke-width="0.807701" stroke-linecap="round" stroke-linejoin="round"/>
</g>
<path id="Vector_96" d="M386.216 592.36C386.216 592.883 386.008 593.385 385.64 593.755C385.271 594.124 384.77 594.332 384.249 594.332H372.448L368.514 598.277V582.497C368.514 581.974 368.722 581.472 369.09 581.103C369.459 580.733 369.96 580.525 370.481 580.525H384.249C384.77 580.525 385.271 580.733 385.64 581.103C386.008 581.472 386.216 581.974 386.216 582.497V592.36Z" stroke="#EDEAEF" stroke-width="0.807701" stroke-linecap="round" stroke-linejoin="round"/>
</g>
<rect id=" " x="451.956" y="569.676" width="16.7662" height="89.7483" rx="2.4231" fill="#9C4FB4"/>
</g>
</g>
<g id="fignu2-icon1" class="fignu2-icon1">
<g id="Rectangle 890" filter="url(#filter4_dddd_4187:24145)">
<rect x="437" y="541" width="140" height="140" rx="32.3077" fill="#FEFBFF"/>
</g>
<path id="Vector_97" d="M531 594L498 627L483 612" stroke="url(#paint10_linear_4187:24145)" stroke-width="5.96174" stroke-linecap="round" stroke-linejoin="round"/>
</g>
</g>
<defs>
<filter id="filter0_d_4187:24145" x="463" y="183" width="13.2842" height="83.0707" filterUnits="userSpaceOnUse" color-interpolation-filters="sRGB">
<feFlood flood-opacity="0" result="BackgroundImageFix"/>
<feColorMatrix in="SourceAlpha" type="matrix" values="0 0 0 0 0 0 0 0 0 0 0 0 0 0 0 0 0 0 127 0" result="hardAlpha"/>
<feOffset dx="-2"/>
<feGaussianBlur stdDeviation="2.5"/>
<feColorMatrix type="matrix" values="0 0 0 0 0 0 0 0 0 0 0 0 0 0 0 0 0 0 0.12 0"/>
<feBlend mode="normal" in2="BackgroundImageFix" result="effect1_dropShadow_4187:24145"/>
<feBlend mode="normal" in="SourceGraphic" in2="effect1_dropShadow_4187:24145" result="shape"/>
</filter>
<filter id="filter1_dddd_4187:24145" x="64" y="20" width="488" height="846" filterUnits="userSpaceOnUse" color-interpolation-filters="sRGB">
<feFlood flood-opacity="0" result="BackgroundImageFix"/>
<feColorMatrix in="SourceAlpha" type="matrix" values="0 0 0 0 0 0 0 0 0 0 0 0 0 0 0 0 0 0 127 0" result="hardAlpha"/>
<feOffset dy="2.30969"/>
<feGaussianBlur stdDeviation="1.81152"/>
<feColorMatrix type="matrix" values="0 0 0 0 0.662745 0 0 0 0 0.313726 0 0 0 0 0.768627 0 0 0 0.0278729 0"/>
<feBlend mode="normal" in2="BackgroundImageFix" result="effect1_dropShadow_4187:24145"/>
<feColorMatrix in="SourceAlpha" type="matrix" values="0 0 0 0 0 0 0 0 0 0 0 0 0 0 0 0 0 0 127 0" result="hardAlpha"/>
<feOffset dy="6.38599"/>
<feGaussianBlur stdDeviation="5.00862"/>
<feColorMatrix type="matrix" values="0 0 0 0 0.662745 0 0 0 0 0.313726 0 0 0 0 0.768627 0 0 0 0.04 0"/>
<feBlend mode="normal" in2="effect1_dropShadow_4187:24145" result="effect2_dropShadow_4187:24145"/>
<feColorMatrix in="SourceAlpha" type="matrix" values="0 0 0 0 0 0 0 0 0 0 0 0 0 0 0 0 0 0 127 0" result="hardAlpha"/>
<feOffset dy="15.375"/>
<feGaussianBlur stdDeviation="12.0588"/>
<feColorMatrix type="matrix" values="0 0 0 0 0.662745 0 0 0 0 0.313726 0 0 0 0 0.768627 0 0 0 0.0521271 0"/>
<feBlend mode="normal" in2="effect2_dropShadow_4187:24145" result="effect3_dropShadow_4187:24145"/>
<feColorMatrix in="SourceAlpha" type="matrix" values="0 0 0 0 0 0 0 0 0 0 0 0 0 0 0 0 0 0 127 0" result="hardAlpha"/>
<feOffset dy="51"/>
<feGaussianBlur stdDeviation="40"/>
<feColorMatrix type="matrix" values="0 0 0 0 0.662745 0 0 0 0 0.313726 0 0 0 0 0.768627 0 0 0 0.08 0"/>
<feBlend mode="normal" in2="effect3_dropShadow_4187:24145" result="effect4_dropShadow_4187:24145"/>
<feBlend mode="normal" in="SourceGraphic" in2="effect4_dropShadow_4187:24145" result="shape"/>
</filter>
<filter id="filter2_dddd_4187:24145" x="357" y="77" width="300" height="300" filterUnits="userSpaceOnUse" color-interpolation-filters="sRGB">
<feFlood flood-opacity="0" result="BackgroundImageFix"/>
<feColorMatrix in="SourceAlpha" type="matrix" values="0 0 0 0 0 0 0 0 0 0 0 0 0 0 0 0 0 0 127 0" result="hardAlpha"/>
<feOffset dy="2.30969"/>
<feGaussianBlur stdDeviation="1.81152"/>
<feColorMatrix type="matrix" values="0 0 0 0 0.662745 0 0 0 0 0.313726 0 0 0 0 0.768627 0 0 0 0.0278729 0"/>
<feBlend mode="normal" in2="BackgroundImageFix" result="effect1_dropShadow_4187:24145"/>
<feColorMatrix in="SourceAlpha" type="matrix" values="0 0 0 0 0 0 0 0 0 0 0 0 0 0 0 0 0 0 127 0" result="hardAlpha"/>
<feOffset dy="6.38599"/>
<feGaussianBlur stdDeviation="5.00862"/>
<feColorMatrix type="matrix" values="0 0 0 0 0.662745 0 0 0 0 0.313726 0 0 0 0 0.768627 0 0 0 0.04 0"/>
<feBlend mode="normal" in2="effect1_dropShadow_4187:24145" result="effect2_dropShadow_4187:24145"/>
<feColorMatrix in="SourceAlpha" type="matrix" values="0 0 0 0 0 0 0 0 0 0 0 0 0 0 0 0 0 0 127 0" result="hardAlpha"/>
<feOffset dy="15.375"/>
<feGaussianBlur stdDeviation="12.0588"/>
<feColorMatrix type="matrix" values="0 0 0 0 0.662745 0 0 0 0 0.313726 0 0 0 0 0.768627 0 0 0 0.0521271 0"/>
<feBlend mode="normal" in2="effect2_dropShadow_4187:24145" result="effect3_dropShadow_4187:24145"/>
<feColorMatrix in="SourceAlpha" type="matrix" values="0 0 0 0 0 0 0 0 0 0 0 0 0 0 0 0 0 0 127 0" result="hardAlpha"/>
<feOffset dy="51"/>
<feGaussianBlur stdDeviation="40"/>
<feColorMatrix type="matrix" values="0 0 0 0 0.662745 0 0 0 0 0.313726 0 0 0 0 0.768627 0 0 0 0.08 0"/>
<feBlend mode="normal" in2="effect3_dropShadow_4187:24145" result="effect4_dropShadow_4187:24145"/>
<feBlend mode="normal" in="SourceGraphic" in2="effect4_dropShadow_4187:24145" result="shape"/>
</filter>
<filter id="filter3_dddd_4187:24145" x="-44" y="157" width="300" height="300" filterUnits="userSpaceOnUse" color-interpolation-filters="sRGB">
<feFlood flood-opacity="0" result="BackgroundImageFix"/>
<feColorMatrix in="SourceAlpha" type="matrix" values="0 0 0 0 0 0 0 0 0 0 0 0 0 0 0 0 0 0 127 0" result="hardAlpha"/>
<feOffset dy="2.30969"/>
<feGaussianBlur stdDeviation="1.81152"/>
<feColorMatrix type="matrix" values="0 0 0 0 0.662745 0 0 0 0 0.313726 0 0 0 0 0.768627 0 0 0 0.0278729 0"/>
<feBlend mode="normal" in2="BackgroundImageFix" result="effect1_dropShadow_4187:24145"/>
<feColorMatrix in="SourceAlpha" type="matrix" values="0 0 0 0 0 0 0 0 0 0 0 0 0 0 0 0 0 0 127 0" result="hardAlpha"/>
<feOffset dy="6.38599"/>
<feGaussianBlur stdDeviation="5.00862"/>
<feColorMatrix type="matrix" values="0 0 0 0 0.662745 0 0 0 0 0.313726 0 0 0 0 0.768627 0 0 0 0.04 0"/>
<feBlend mode="normal" in2="effect1_dropShadow_4187:24145" result="effect2_dropShadow_4187:24145"/>
<feColorMatrix in="SourceAlpha" type="matrix" values="0 0 0 0 0 0 0 0 0 0 0 0 0 0 0 0 0 0 127 0" result="hardAlpha"/>
<feOffset dy="15.375"/>
<feGaussianBlur stdDeviation="12.0588"/>
<feColorMatrix type="matrix" values="0 0 0 0 0.662745 0 0 0 0 0.313726 0 0 0 0 0.768627 0 0 0 0.0521271 0"/>
<feBlend mode="normal" in2="effect2_dropShadow_4187:24145" result="effect3_dropShadow_4187:24145"/>
<feColorMatrix in="SourceAlpha" type="matrix" values="0 0 0 0 0 0 0 0 0 0 0 0 0 0 0 0 0 0 127 0" result="hardAlpha"/>
<feOffset dy="51"/>
<feGaussianBlur stdDeviation="40"/>
<feColorMatrix type="matrix" values="0 0 0 0 0.662745 0 0 0 0 0.313726 0 0 0 0 0.768627 0 0 0 0.08 0"/>
<feBlend mode="normal" in2="effect3_dropShadow_4187:24145" result="effect4_dropShadow_4187:24145"/>
<feBlend mode="normal" in="SourceGraphic" in2="effect4_dropShadow_4187:24145" result="shape"/>
</filter>
<filter id="filter4_dddd_4187:24145" x="357" y="512" width="300" height="300" filterUnits="userSpaceOnUse" color-interpolation-filters="sRGB">
<feFlood flood-opacity="0" result="BackgroundImageFix"/>
<feColorMatrix in="SourceAlpha" type="matrix" values="0 0 0 0 0 0 0 0 0 0 0 0 0 0 0 0 0 0 127 0" result="hardAlpha"/>
<feOffset dy="2.30969"/>
<feGaussianBlur stdDeviation="1.81152"/>
<feColorMatrix type="matrix" values="0 0 0 0 0.662745 0 0 0 0 0.313726 0 0 0 0 0.768627 0 0 0 0.0278729 0"/>
<feBlend mode="normal" in2="BackgroundImageFix" result="effect1_dropShadow_4187:24145"/>
<feColorMatrix in="SourceAlpha" type="matrix" values="0 0 0 0 0 0 0 0 0 0 0 0 0 0 0 0 0 0 127 0" result="hardAlpha"/>
<feOffset dy="6.38599"/>
<feGaussianBlur stdDeviation="5.00862"/>
<feColorMatrix type="matrix" values="0 0 0 0 0.662745 0 0 0 0 0.313726 0 0 0 0 0.768627 0 0 0 0.04 0"/>
<feBlend mode="normal" in2="effect1_dropShadow_4187:24145" result="effect2_dropShadow_4187:24145"/>
<feColorMatrix in="SourceAlpha" type="matrix" values="0 0 0 0 0 0 0 0 0 0 0 0 0 0 0 0 0 0 127 0" result="hardAlpha"/>
<feOffset dy="15.375"/>
<feGaussianBlur stdDeviation="12.0588"/>
<feColorMatrix type="matrix" values="0 0 0 0 0.662745 0 0 0 0 0.313726 0 0 0 0 0.768627 0 0 0 0.0521271 0"/>
<feBlend mode="normal" in2="effect2_dropShadow_4187:24145" result="effect3_dropShadow_4187:24145"/>
<feColorMatrix in="SourceAlpha" type="matrix" values="0 0 0 0 0 0 0 0 0 0 0 0 0 0 0 0 0 0 127 0" result="hardAlpha"/>
<feOffset dy="51"/>
<feGaussianBlur stdDeviation="40"/>
<feColorMatrix type="matrix" values="0 0 0 0 0.662745 0 0 0 0 0.313726 0 0 0 0 0.768627 0 0 0 0.08 0"/>
<feBlend mode="normal" in2="effect3_dropShadow_4187:24145" result="effect4_dropShadow_4187:24145"/>
<feBlend mode="normal" in="SourceGraphic" in2="effect4_dropShadow_4187:24145" result="shape"/>
</filter>
<linearGradient id="paint0_linear_4187:24145" x1="310.5" y1="740" x2="310.5" y2="913" gradientUnits="userSpaceOnUse">
<stop stop-color="#82269E"/>
<stop offset="1" stop-color="#82269E" stop-opacity="0"/>
</linearGradient>
<linearGradient id="paint1_linear_4187:24145" x1="414.26" y1="149.045" x2="48.1891" y2="343.893" gradientUnits="userSpaceOnUse">
<stop stop-color="#A950C4"/>
<stop offset="1" stop-color="#82269E"/>
</linearGradient>
<linearGradient id="paint2_linear_4187:24145" x1="507.845" y1="151.91" x2="506.32" y2="151.937" gradientUnits="userSpaceOnUse">
<stop stop-color="#A950C4"/>
<stop offset="1" stop-color="#82269E"/>
</linearGradient>
<linearGradient id="paint3_linear_4187:24145" x1="519.42" y1="160.67" x2="491.634" y2="188.123" gradientUnits="userSpaceOnUse">
<stop stop-color="#A950C4"/>
<stop offset="1" stop-color="#82269E"/>
</linearGradient>
<linearGradient id="paint4_linear_4187:24145" x1="122.56" y1="234.1" x2="82.9927" y2="270.586" gradientUnits="userSpaceOnUse">
<stop stop-color="#A950C4"/>
<stop offset="1" stop-color="#82269E"/>
</linearGradient>
<linearGradient id="paint5_linear_4187:24145" x1="316.664" y1="284.434" x2="311.406" y2="294.36" gradientUnits="userSpaceOnUse">
<stop stop-color="#A950C4"/>
<stop offset="1" stop-color="#82269E"/>
</linearGradient>
<linearGradient id="paint6_linear_4187:24145" x1="318.021" y1="278.983" x2="316.732" y2="285.065" gradientUnits="userSpaceOnUse">
<stop stop-color="#A950C4"/>
<stop offset="1" stop-color="#82269E"/>
</linearGradient>
<linearGradient id="paint7_linear_4187:24145" x1="312.08" y1="280.279" x2="310.565" y2="280.401" gradientUnits="userSpaceOnUse">
<stop stop-color="#A950C4"/>
<stop offset="1" stop-color="#82269E"/>
</linearGradient>
<linearGradient id="paint8_linear_4187:24145" x1="310.168" y1="274.179" x2="307.352" y2="278.831" gradientUnits="userSpaceOnUse">
<stop stop-color="#A950C4"/>
<stop offset="1" stop-color="#82269E"/>
</linearGradient>
<linearGradient id="paint9_linear_4187:24145" x1="317.052" y1="274.179" x2="314.236" y2="278.831" gradientUnits="userSpaceOnUse">
<stop stop-color="#A950C4"/>
<stop offset="1" stop-color="#82269E"/>
</linearGradient>
<linearGradient id="paint10_linear_4187:24145" x1="523.56" y1="598.455" x2="504.349" y2="630.664" gradientUnits="userSpaceOnUse">
<stop stop-color="#A950C4"/>
<stop offset="1" stop-color="#82269E"/>
</linearGradient>
<clipPath id="clip0_4187:24145">
<rect width="612" height="900" fill="white"/>
</clipPath>
<clipPath id="clip1_4187:24145">
<rect width="307.888" height="86.4436" fill="white" transform="translate(156 570.274)"/>
</clipPath>
<clipPath id="clip2_4187:24145">
<rect width="302.888" height="86.3378" fill="white" transform="translate(159 570.662)"/>
</clipPath>
<clipPath id="clip3_4187:24145">
<rect width="302.888" height="87.3238" fill="white" transform="translate(162 569.676)"/>
</clipPath>
</defs>
</svg>
