<svg viewBox="0 0 39 21" fill="none" xmlns="http://www.w3.org/2000/svg">
<path id="logo-nu (Traced)" fill-rule="evenodd" clip-rule="evenodd" d="M10.4909 0.35703C9.66852 0.557006 8.46294 1.18614 8.04062 1.63584C7.69629 2.00226 7.7329 2.02559 8.89335 2.18267C9.72135 2.29474 11.034 2.92919 11.7797 3.57803C12.1478 3.89819 12.5544 4.46961 12.8606 5.09693C13.7585 6.93612 13.775 7.09599 13.775 13.9577V20.147H16.2205H18.6661V13.6642C18.6661 5.61944 18.553 4.81786 17.1153 2.66996C15.788 0.68683 13.0565 -0.266795 10.4909 0.35703ZM20.2418 7.25544C20.3127 14.6655 20.3592 15.1133 21.2567 17.0044C21.844 18.2423 22.6367 19.1541 23.6684 19.7786C24.6877 20.3959 25.8519 20.6255 27.4885 20.5323C28.5949 20.4691 28.8846 20.3943 29.7774 19.9411C30.3396 19.6558 30.9342 19.279 31.0987 19.1039L31.3979 18.7854L30.416 18.6398C28.0999 18.2961 26.6904 17.1363 25.7091 14.7668L25.304 13.7886L25.2615 7.18557L25.219 0.58258H22.6986H20.178L20.2418 7.25544ZM33.3089 8.44328C33.2696 16.2792 33.2685 16.3059 32.9544 16.9435C32.7811 17.2951 32.4147 17.8454 32.1399 18.1662C31.6673 18.7184 31.6575 18.7495 31.957 18.7495C32.5135 18.7495 34.0855 18.3054 34.7992 17.9466C35.8074 17.4397 36.9986 16.2393 37.5066 15.2184C38.2918 13.6399 38.3702 12.8388 38.3702 6.3879V0.58258H35.8593H33.3483L33.3089 8.44328ZM5.81825 2.19734C3.49078 2.70196 1.72956 4.30918 1.01504 6.58019C0.743934 7.44172 0.722413 7.90023 0.673223 13.8235L0.620956 20.147H3.1396H5.65824L5.6989 12.6357L5.73957 5.12432L6.11674 4.24448C6.32413 3.76054 6.72254 3.05315 7.00203 2.67234L7.51015 1.98004L7.11397 1.99108C6.89611 1.99723 6.31295 2.09002 5.81825 2.19734Z" fill="#82269E"/>
</svg>
