<svg viewBox="0 0 722 458" fill="none" xmlns="http://www.w3.org/2000/svg">
<g id="nubank">
<g id="Rectangle 968" filter="url(#filter0_i)">
<rect width="722" height="458" rx="25" fill="url(#paint0_linear)"/>
</g>
<path id="Union" fill-rule="evenodd" clip-rule="evenodd" d="M94.6653 319.851C94.6653 319.852 94.6657 319.826 94.6765 319.771C94.687 319.717 94.7053 319.646 94.7346 319.559C94.7934 319.385 94.89 319.165 95.0334 318.917C95.3199 318.421 95.7758 317.84 96.4341 317.301C97.733 316.235 99.8635 315.292 103.14 315.533C116.1 316.484 123.415 325.41 123.415 332.161V372.167C123.415 372.805 123.268 373.099 123.132 373.241C123.004 373.375 122.718 373.545 122.028 373.545H114.306C113.616 373.545 113.33 373.375 113.202 373.241C113.066 373.099 112.919 372.805 112.919 372.167V335.238C112.919 332.828 111.734 330.421 109.988 328.634C108.238 326.842 105.817 325.565 103.213 325.565H94.6653V319.851ZM103.213 327.565H94.6653V372.167C94.6653 373.162 94.4816 374.108 93.7928 374.763C93.1155 375.407 92.1812 375.545 91.2783 375.545H83.4153C82.6083 375.545 81.7232 375.389 81.0381 374.792C80.3256 374.171 80.0283 373.251 80.0283 372.167V334.819C80.0283 332.956 81.0921 330.668 82.6635 328.878C84.2481 327.074 86.5353 325.565 89.1713 325.565H92.6653V319.851C92.6653 319.284 92.917 318.582 93.3015 317.916C93.7055 317.217 94.3169 316.45 95.1658 315.754C96.8815 314.347 99.5249 313.262 103.286 313.538C117.005 314.545 125.415 324.098 125.415 332.161V372.167C125.415 373.069 125.211 373.963 124.575 374.626C123.931 375.297 123.024 375.545 122.028 375.545H114.306C113.31 375.545 112.403 375.297 111.759 374.626C111.123 373.963 110.919 373.069 110.919 372.167V335.238C110.919 333.463 110.026 331.534 108.558 330.031C107.093 328.532 105.161 327.565 103.213 327.565ZM89.1713 327.565H92.6653V372.167C92.6653 372.991 92.4979 373.234 92.4145 373.314C92.3195 373.404 92.0603 373.545 91.2783 373.545H83.4153C82.8182 373.545 82.5097 373.422 82.3524 373.285C82.2225 373.171 82.0283 372.902 82.0283 372.167V334.819C82.0283 333.604 82.7895 331.766 84.1663 330.198C85.5298 328.645 87.3141 327.565 89.1713 327.565ZM164.111 381.128C164.111 381.13 164.11 381.156 164.1 381.209C164.089 381.262 164.071 381.333 164.042 381.42C163.983 381.595 163.886 381.814 163.743 382.063C163.456 382.559 163.001 383.139 162.342 383.679C161.043 384.744 158.913 385.687 155.636 385.447C142.676 384.495 135.361 375.569 135.361 368.819V328.812C135.361 328.175 135.508 327.88 135.644 327.738C135.772 327.605 136.058 327.434 136.748 327.434H144.471C145.16 327.434 145.446 327.605 145.575 327.738C145.71 327.88 145.858 328.175 145.858 328.812V365.741C145.858 368.151 147.042 370.559 148.788 372.346C150.539 374.137 152.96 375.414 155.563 375.414H164.111V381.128V381.128ZM155.563 373.414H164.111V328.812C164.111 327.817 164.295 326.871 164.984 326.216C165.661 325.572 166.595 325.434 167.498 325.434H175.361C176.168 325.434 177.053 325.59 177.738 326.187C178.451 326.808 178.748 327.728 178.748 328.812V366.161C178.748 368.023 177.684 370.312 176.113 372.101C174.528 373.906 172.241 375.414 169.605 375.414H166.111V381.128C166.111 381.695 165.859 382.397 165.475 383.063C165.071 383.762 164.459 384.529 163.61 385.225C161.895 386.632 159.251 387.717 155.49 387.441C141.772 386.434 133.361 376.882 133.361 368.819V328.812C133.361 327.91 133.565 327.016 134.201 326.353C134.845 325.683 135.753 325.434 136.748 325.434H144.471C145.466 325.434 146.373 325.683 147.017 326.353C147.654 327.016 147.858 327.91 147.858 328.812V365.741C147.858 367.516 148.75 369.445 150.219 370.948C151.683 372.447 153.615 373.414 155.563 373.414ZM169.605 373.414H166.111V328.812C166.111 327.988 166.278 327.745 166.362 327.666C166.457 327.575 166.716 327.434 167.498 327.434H175.361C175.958 327.434 176.267 327.558 176.424 327.695C176.554 327.808 176.748 328.077 176.748 328.812V366.161C176.748 367.376 175.987 369.214 174.61 370.781C173.246 372.334 171.462 373.414 169.605 373.414Z" fill="#FEFBFF"/>
<circle id="Ellipse 10" cx="581.889" cy="86.4971" r="45.7505" fill="#E71924"/>
<circle id="Ellipse 11" cx="637.647" cy="86.4971" r="45.7505" fill="#F99F19"/>
<path id="Intersect" fill-rule="evenodd" clip-rule="evenodd" d="M609.768 122.595C620.636 114.23 627.64 101.092 627.64 86.3172C627.64 71.5427 620.636 58.404 609.768 50.0396C598.9 58.404 591.897 71.5427 591.897 86.3172C591.897 101.092 598.9 114.23 609.768 122.595Z" fill="#F26520"/>
<g id="Group 301">
<rect id="Rectangle 344" x="80.4209" y="156.195" width="97.9347" height="69.3406" rx="6.07624" fill="url(#paint1_linear)" stroke="#211F21" stroke-width="2.14455"/>
<path id="Vector 9" d="M80.7783 178.713H110.087" stroke="#211F21" stroke-width="2" stroke-linecap="round"/>
<path id="Vector 10" d="M80.7783 200.873H109.445" stroke="#211F21" stroke-width="2" stroke-linecap="round"/>
<path id="Vector 11" d="M149.404 200.873H177.998" stroke="#211F21" stroke-width="2" stroke-linecap="round"/>
<path id="Vector 12" d="M148.975 179.428H177.998" stroke="#211F21" stroke-width="2" stroke-linecap="round"/>
<circle id="Ellipse 12" cx="129.388" cy="166.561" r="2.14455" fill="#211F21"/>
<g id="Vector 13">
<path d="M231.053 205.824C236.325 192.59 236.926 185.119 231.053 171.645C230.43 170.215 231.053 169.024 231.768 168.786C232.483 168.547 233.589 168.786 234.27 170.215C241.188 184.73 240.767 192.87 234.627 207.387C233.912 208.817 232.575 208.998 231.768 208.46C230.824 207.831 230.608 206.941 231.053 205.824Z" fill="#FEFBFF"/>
<path d="M223.547 172.717C222.832 173.075 222.375 174.43 223.19 175.934C227.999 185.94 227.801 191.662 223.19 202.026C222.686 203.071 222.998 204.226 223.905 204.528C224.977 204.886 225.913 204.125 226.406 203.098C231.701 192.084 231.84 185.756 226.406 174.147C225.905 173.075 224.619 172.181 223.547 172.717Z" fill="#FEFBFF"/>
<path d="M216.399 177.364C215.326 177.721 215.136 178.908 215.684 180.223C218.53 187.063 218.979 190.898 215.684 197.737C215.041 198.929 214.83 200.193 216.041 200.596C217.252 201 218.126 200.363 218.543 199.524C222.766 191.149 221.82 186.454 218.543 178.079C218.263 177.364 217.471 177.006 216.399 177.364Z" fill="#FEFBFF"/>
<path d="M208.893 180.223C207.82 180.938 207.668 182.022 208.535 183.797C210.344 187.564 210.303 189.68 208.535 193.448C207.713 195.11 207.463 197.022 208.893 197.38C210.322 197.737 210.957 197.229 211.752 195.235C213.578 189.987 213.756 187.02 211.752 181.653C211.291 180.261 210.322 179.508 208.893 180.223Z" fill="#FEFBFF"/>
</g>
<path id="Vector 14" d="M145.115 170.849C142.372 161.508 137.251 156.91 129.03 156.91C119.023 156.91 116.194 164.53 110.087 178.355C113.998 187.507 114.039 192.437 110.087 200.873C116.494 219.254 121.24 224.915 129.388 224.821C140.111 224.821 143.163 215.733 149.046 200.873C145.952 192.497 145.622 187.875 148.5 179.5" stroke="#211F21" stroke-width="2" stroke-linecap="round"/>
</g>
<path id="Gabriel cavalheiro" d="M234.32 375.456C232.816 375.456 231.488 375.208 230.336 374.712C229.2 374.2 228.24 373.52 227.456 372.672C226.688 371.824 226.104 370.856 225.704 369.768C225.32 368.68 225.128 367.552 225.128 366.384V365.856C225.128 364.752 225.32 363.672 225.704 362.616C226.088 361.56 226.648 360.608 227.384 359.76C228.136 358.912 229.056 358.24 230.144 357.744C231.232 357.232 232.496 356.976 233.936 356.976C235.456 356.976 236.808 357.264 237.992 357.84C239.192 358.416 240.152 359.216 240.872 360.24C241.592 361.248 242.016 362.416 242.144 363.744H238.712C238.6 362.992 238.32 362.352 237.872 361.824C237.424 361.28 236.856 360.864 236.168 360.576C235.496 360.288 234.752 360.144 233.936 360.144C232.832 360.144 231.88 360.4 231.08 360.912C230.28 361.408 229.664 362.112 229.232 363.024C228.8 363.92 228.584 364.96 228.584 366.144C228.584 368.096 229.096 369.624 230.12 370.728C231.16 371.816 232.56 372.36 234.32 372.36C235.248 372.36 236.088 372.2 236.84 371.88C237.608 371.56 238.232 371.136 238.712 370.608V368.64H233.768V366.096H243.32V368.64H241.856V371.856C241.104 373.008 240.08 373.896 238.784 374.52C237.488 375.144 236 375.456 234.32 375.456ZM246.59 375L252.566 357.48H258.134L264.278 375H260.774L259.166 370.344H251.534L249.998 375H246.59ZM252.494 367.464H258.182L255.758 360.336H254.87L252.494 367.464ZM269.28 375.12V357.36H275.568C277.552 357.36 279.056 357.776 280.08 358.608C281.12 359.44 281.64 360.632 281.64 362.184V362.52C281.64 363.368 281.48 364.072 281.16 364.632C280.856 365.192 280.432 365.648 279.888 366C280.656 366.32 281.256 366.792 281.688 367.416C282.136 368.04 282.36 368.856 282.36 369.864V370.2C282.36 371.768 281.84 372.984 280.8 373.848C279.776 374.696 278.272 375.12 276.288 375.12H269.28ZM275.88 360.096H272.616V364.848H275.88C276.696 364.848 277.296 364.632 277.68 364.2C278.064 363.768 278.256 363.192 278.256 362.472C278.256 361.752 278.064 361.176 277.68 360.744C277.296 360.312 276.696 360.096 275.88 360.096ZM276.528 367.488H272.616V372.384H276.528C277.328 372.384 277.936 372.168 278.352 371.736C278.768 371.304 278.976 370.696 278.976 369.912C278.976 369.144 278.768 368.552 278.352 368.136C277.936 367.704 277.328 367.488 276.528 367.488ZM288.204 375V357.36H294.708C296.804 357.36 298.476 357.832 299.724 358.776C300.972 359.72 301.596 361.152 301.596 363.072V363.48C301.596 364.792 301.292 365.872 300.684 366.72C300.092 367.568 299.268 368.192 298.212 368.592L302.892 375H298.908L294.78 369.144H294.708H291.612V375H288.204ZM295.068 360.264H291.612V366.384H295.068C295.996 366.384 296.74 366.104 297.3 365.544C297.86 364.984 298.14 364.248 298.14 363.336C298.14 362.424 297.86 361.688 297.3 361.128C296.74 360.552 295.996 360.264 295.068 360.264ZM307.925 375V357.48H311.333V375H307.925ZM318.105 375V357.48H328.713V360.36H321.441V364.656H328.281V367.536H321.441V372.12H328.905V375H318.105ZM334.802 375V357.48H338.21V372H345.29V375H334.802ZM365.943 375.456C364.343 375.456 362.975 375.176 361.839 374.616C360.719 374.056 359.799 373.328 359.079 372.432C358.375 371.536 357.855 370.568 357.519 369.528C357.183 368.472 357.015 367.448 357.015 366.456V365.928C357.015 364.856 357.183 363.792 357.519 362.736C357.871 361.664 358.407 360.696 359.127 359.832C359.847 358.968 360.759 358.28 361.863 357.768C362.967 357.24 364.287 356.976 365.823 356.976C367.391 356.976 368.767 357.264 369.951 357.84C371.135 358.416 372.079 359.216 372.783 360.24C373.487 361.264 373.911 362.464 374.055 363.84H370.623C370.431 362.64 369.895 361.728 369.015 361.104C368.151 360.464 367.087 360.144 365.823 360.144C364.655 360.144 363.671 360.408 362.871 360.936C362.087 361.448 361.487 362.16 361.071 363.072C360.671 363.984 360.471 365.032 360.471 366.216C360.471 367.368 360.679 368.4 361.095 369.312C361.511 370.224 362.127 370.952 362.943 371.496C363.759 372.024 364.759 372.288 365.943 372.288C367.255 372.288 368.359 371.968 369.255 371.328C370.167 370.672 370.719 369.76 370.911 368.592H374.343C374.183 369.856 373.751 371.008 373.047 372.048C372.359 373.088 371.415 373.92 370.215 374.544C369.031 375.152 367.607 375.456 365.943 375.456ZM377.727 375L383.703 357.48H389.271L395.415 375H391.911L390.303 370.344H382.671L381.135 375H377.727ZM383.631 367.464H389.319L386.895 360.336H386.007L383.631 367.464ZM403.229 375L397.637 357.48H401.165L405.629 372.168H406.469L410.621 357.48H414.029L408.845 375H403.229ZM416.324 375L422.3 357.48H427.868L434.012 375H430.508L428.9 370.344H421.268L419.732 375H416.324ZM422.228 367.464H427.916L425.492 360.336H424.604L422.228 367.464ZM439.015 375V357.48H442.423V372H449.503V375H439.015ZM454.68 375V357.48H458.088V364.728H466.176V357.48H469.584V375H466.176V367.728H458.088V375H454.68ZM476.299 375V357.48H486.907V360.36H479.635V364.656H486.475V367.536H479.635V372.12H487.099V375H476.299ZM493.044 375V357.48H496.452V375H493.044ZM503.224 375V357.36H509.728C511.824 357.36 513.496 357.832 514.744 358.776C515.992 359.72 516.616 361.152 516.616 363.072V363.48C516.616 364.792 516.312 365.872 515.704 366.72C515.112 367.568 514.288 368.192 513.232 368.592L517.912 375H513.928L509.8 369.144H509.728H506.632V375H503.224ZM510.088 360.264H506.632V366.384H510.088C511.016 366.384 511.76 366.104 512.32 365.544C512.88 364.984 513.16 364.248 513.16 363.336C513.16 362.424 512.88 361.688 512.32 361.128C511.76 360.552 511.016 360.264 510.088 360.264ZM530.895 375.456C529.311 375.456 527.935 375.176 526.767 374.616C525.599 374.056 524.631 373.328 523.863 372.432C523.111 371.52 522.551 370.544 522.183 369.504C521.815 368.448 521.631 367.432 521.631 366.456V365.928C521.631 364.856 521.823 363.792 522.207 362.736C522.591 361.68 523.167 360.72 523.935 359.856C524.719 358.976 525.687 358.28 526.839 357.768C527.991 357.24 529.343 356.976 530.895 356.976C532.415 356.976 533.751 357.24 534.903 357.768C536.071 358.28 537.039 358.976 537.807 359.856C538.575 360.72 539.151 361.68 539.535 362.736C539.935 363.792 540.135 364.856 540.135 365.928V366.456C540.135 367.432 539.943 368.448 539.559 369.504C539.191 370.544 538.623 371.52 537.855 372.432C537.103 373.328 536.143 374.056 534.975 374.616C533.823 375.176 532.463 375.456 530.895 375.456ZM530.895 372.288C532.079 372.288 533.103 372.016 533.967 371.472C534.831 370.912 535.495 370.168 535.959 369.24C536.439 368.312 536.679 367.304 536.679 366.216C536.679 365.064 536.439 364.032 535.959 363.12C535.495 362.192 534.831 361.464 533.967 360.936C533.103 360.408 532.079 360.144 530.895 360.144C529.695 360.144 528.663 360.408 527.799 360.936C526.935 361.464 526.263 362.192 525.783 363.12C525.319 364.032 525.087 365.064 525.087 366.216C525.087 367.304 525.319 368.312 525.783 369.24C526.247 370.168 526.911 370.912 527.775 371.472C528.655 372.016 529.695 372.288 530.895 372.288Z" fill="white"/>
</g>
<defs>
<filter id="filter0_i" x="0" y="0" width="725" height="461" filterUnits="userSpaceOnUse" color-interpolation-filters="sRGB">
<feFlood flood-opacity="0" result="BackgroundImageFix"/>
<feBlend mode="normal" in="SourceGraphic" in2="BackgroundImageFix" result="shape"/>
<feColorMatrix in="SourceAlpha" type="matrix" values="0 0 0 0 0 0 0 0 0 0 0 0 0 0 0 0 0 0 127 0" result="hardAlpha"/>
<feOffset dx="3" dy="3"/>
<feGaussianBlur stdDeviation="3"/>
<feComposite in2="hardAlpha" operator="arithmetic" k2="-1" k3="1"/>
<feColorMatrix type="matrix" values="0 0 0 0 1 0 0 0 0 1 0 0 0 0 1 0 0 0 0.25 0"/>
<feBlend mode="normal" in2="shape" result="effect1_innerShadow"/>
</filter>
<linearGradient id="paint0_linear" x1="610.09" y1="61.83" x2="354.096" y2="526.995" gradientUnits="userSpaceOnUse">
<stop stop-color="#A950C4"/>
<stop offset="1" stop-color="#82269E"/>
</linearGradient>
<linearGradient id="paint1_linear" x1="171" y1="165" x2="87" y2="221" gradientUnits="userSpaceOnUse">
<stop stop-color="#F4F4F4"/>
<stop offset="1" stop-color="#D6D6D6"/>
</linearGradient>
</defs>
</svg>
