<svg viewBox="0 0 722 458" fill="none" xmlns="http://www.w3.org/2000/svg">
<g id="nucard-front">
<rect id="Rectangle 1021" width="722" height="458" rx="25.4911" fill="url(#paint0_linear_1222_19643)"/>
<path id="Gabriel Cavalheiro" d="M231.523 363.465C229.989 363.465 228.635 363.212 227.46 362.706C226.302 362.184 225.323 361.491 224.524 360.626C223.741 359.762 223.145 358.775 222.737 357.665C222.346 356.556 222.15 355.406 222.15 354.215V353.676C222.15 352.551 222.346 351.449 222.737 350.373C223.129 349.296 223.7 348.325 224.45 347.461C225.217 346.596 226.155 345.911 227.265 345.405C228.374 344.883 229.663 344.622 231.131 344.622C232.681 344.622 234.06 344.916 235.267 345.503C236.49 346.09 237.469 346.906 238.203 347.95C238.938 348.978 239.37 350.169 239.5 351.523H236.001C235.887 350.756 235.601 350.104 235.145 349.565C234.688 349.01 234.109 348.586 233.407 348.293C232.722 347.999 231.963 347.852 231.131 347.852C230.006 347.852 229.035 348.113 228.219 348.635C227.403 349.141 226.775 349.859 226.335 350.789C225.894 351.702 225.674 352.763 225.674 353.97C225.674 355.96 226.196 357.518 227.24 358.644C228.301 359.753 229.728 360.308 231.523 360.308C232.469 360.308 233.325 360.145 234.092 359.819C234.875 359.492 235.512 359.06 236.001 358.522V356.515H230.96V353.921H240.7V356.515H239.207V359.794C238.44 360.969 237.396 361.874 236.074 362.511C234.753 363.147 233.236 363.465 231.523 363.465ZM244.034 363L250.127 345.136H255.804L262.069 363H258.496L256.857 358.253H249.075L247.509 363H244.034ZM250.054 355.316H255.853L253.382 348.048H252.476L250.054 355.316ZM267.17 363.122V345.013H273.581C275.604 345.013 277.138 345.438 278.182 346.286C279.242 347.134 279.773 348.35 279.773 349.932V350.275C279.773 351.139 279.61 351.857 279.283 352.428C278.973 352.999 278.541 353.464 277.986 353.823C278.769 354.149 279.381 354.631 279.822 355.267C280.278 355.903 280.507 356.735 280.507 357.763V358.106C280.507 359.705 279.977 360.944 278.916 361.825C277.872 362.69 276.339 363.122 274.316 363.122H267.17ZM273.9 347.803H270.571V352.649H273.9C274.732 352.649 275.343 352.428 275.735 351.988C276.126 351.547 276.322 350.96 276.322 350.226C276.322 349.492 276.126 348.904 275.735 348.464C275.343 348.023 274.732 347.803 273.9 347.803ZM274.56 355.34H270.571V360.333H274.56C275.376 360.333 275.996 360.112 276.42 359.672C276.844 359.231 277.056 358.611 277.056 357.812C277.056 357.029 276.844 356.425 276.42 356.001C275.996 355.561 275.376 355.34 274.56 355.34ZM286.465 363V345.013H293.097C295.234 345.013 296.939 345.495 298.211 346.457C299.484 347.42 300.12 348.88 300.12 350.838V351.254C300.12 352.591 299.81 353.693 299.19 354.557C298.587 355.422 297.746 356.058 296.67 356.466L301.442 363H297.379L293.17 357.029H293.097H289.94V363H286.465ZM293.464 347.974H289.94V354.215H293.464C294.41 354.215 295.169 353.929 295.74 353.358C296.311 352.787 296.596 352.037 296.596 351.107C296.596 350.177 296.311 349.426 295.74 348.855C295.169 348.268 294.41 347.974 293.464 347.974ZM306.574 363V345.136H310.049V363H306.574ZM316.954 363V345.136H327.77V348.072H320.356V352.453H327.33V355.389H320.356V360.063H327.966V363H316.954ZM333.979 363V345.136H337.454V359.941H344.673V363H333.979ZM365.732 363.465C364.101 363.465 362.706 363.179 361.547 362.608C360.405 362.037 359.467 361.295 358.733 360.382C358.015 359.468 357.485 358.481 357.143 357.42C356.8 356.344 356.629 355.3 356.629 354.288V353.75C356.629 352.657 356.8 351.572 357.143 350.495C357.502 349.402 358.048 348.415 358.782 347.534C359.516 346.653 360.446 345.952 361.572 345.429C362.698 344.891 364.044 344.622 365.61 344.622C367.209 344.622 368.612 344.916 369.819 345.503C371.026 346.09 371.989 346.906 372.706 347.95C373.424 348.994 373.857 350.218 374.003 351.621H370.504C370.308 350.397 369.762 349.467 368.864 348.831C367.983 348.178 366.899 347.852 365.61 347.852C364.419 347.852 363.415 348.121 362.6 348.66C361.8 349.182 361.189 349.908 360.764 350.838C360.357 351.768 360.153 352.836 360.153 354.043C360.153 355.218 360.365 356.27 360.789 357.2C361.213 358.13 361.841 358.872 362.673 359.427C363.505 359.966 364.525 360.235 365.732 360.235C367.07 360.235 368.196 359.908 369.109 359.256C370.039 358.587 370.602 357.657 370.798 356.466H374.297C374.134 357.755 373.694 358.93 372.976 359.99C372.274 361.05 371.312 361.899 370.088 362.535C368.881 363.155 367.429 363.465 365.732 363.465ZM377.747 363L383.841 345.136H389.518L395.783 363H392.21L390.57 358.253H382.789L381.222 363H377.747ZM383.767 355.316H389.567L387.096 348.048H386.19L383.767 355.316ZM403.75 363L398.048 345.136H401.645L406.197 360.112H407.054L411.287 345.136H414.762L409.476 363H403.75ZM417.103 363L423.196 345.136H428.873L435.138 363H431.565L429.926 358.253H422.144L420.578 363H417.103ZM423.123 355.316H428.922L426.451 348.048H425.545L423.123 355.316ZM440.239 363V345.136H443.714V359.941H450.933V363H440.239ZM456.212 363V345.136H459.687V352.526H467.934V345.136H471.409V363H467.934V355.585H459.687V363H456.212ZM478.256 363V345.136H489.072V348.072H481.657V352.453H488.632V355.389H481.657V360.063H489.268V363H478.256ZM495.33 363V345.136H498.804V363H495.33ZM505.71 363V345.013H512.341C514.479 345.013 516.183 345.495 517.456 346.457C518.729 347.42 519.365 348.88 519.365 350.838V351.254C519.365 352.591 519.055 353.693 518.435 354.557C517.831 355.422 516.991 356.058 515.914 356.466L520.686 363H516.624L512.415 357.029H512.341H509.185V363H505.71ZM512.709 347.974H509.185V354.215H512.709C513.655 354.215 514.413 353.929 514.984 353.358C515.555 352.787 515.841 352.037 515.841 351.107C515.841 350.177 515.555 349.426 514.984 348.855C514.413 348.268 513.655 347.974 512.709 347.974ZM533.924 363.465C532.309 363.465 530.906 363.179 529.715 362.608C528.524 362.037 527.537 361.295 526.754 360.382C525.987 359.452 525.416 358.456 525.041 357.396C524.666 356.319 524.478 355.283 524.478 354.288V353.75C524.478 352.657 524.674 351.572 525.066 350.495C525.457 349.418 526.045 348.439 526.828 347.558C527.627 346.661 528.614 345.952 529.789 345.429C530.963 344.891 532.342 344.622 533.924 344.622C535.474 344.622 536.836 344.891 538.011 345.429C539.202 345.952 540.189 346.661 540.972 347.558C541.755 348.439 542.343 349.418 542.734 350.495C543.142 351.572 543.346 352.657 543.346 353.75V354.288C543.346 355.283 543.15 356.319 542.759 357.396C542.383 358.456 541.804 359.452 541.021 360.382C540.254 361.295 539.275 362.037 538.085 362.608C536.91 363.179 535.523 363.465 533.924 363.465ZM533.924 360.235C535.132 360.235 536.176 359.957 537.057 359.403C537.938 358.832 538.615 358.073 539.088 357.127C539.577 356.181 539.822 355.153 539.822 354.043C539.822 352.869 539.577 351.817 539.088 350.887C538.615 349.94 537.938 349.198 537.057 348.66C536.176 348.121 535.132 347.852 533.924 347.852C532.701 347.852 531.648 348.121 530.768 348.66C529.887 349.198 529.201 349.94 528.712 350.887C528.239 351.817 528.002 352.869 528.002 354.043C528.002 355.153 528.239 356.181 528.712 357.127C529.185 358.073 529.862 358.832 530.743 359.403C531.64 359.957 532.701 360.235 533.924 360.235Z" fill="#FEFBFF"/>
<path id="Union" fill-rule="evenodd" clip-rule="evenodd" d="M95.3785 324.853V319.869C95.3785 319.878 95.3787 319.883 95.3796 319.883C95.3807 319.883 95.383 319.876 95.3875 319.86C95.4066 319.796 95.4662 319.594 95.6509 319.274C95.8956 318.85 96.2961 318.336 96.8865 317.852C98.0368 316.909 99.9845 316.016 103.088 316.244C115.778 317.176 122.703 325.879 122.703 332.161V372.168C122.703 372.549 122.64 372.703 122.618 372.745C122.57 372.771 122.412 372.833 122.029 372.833H114.306C113.923 372.833 113.765 372.771 113.717 372.745C113.694 372.703 113.632 372.549 113.632 372.168V335.239C113.632 332.602 112.344 330.025 110.498 328.136C108.646 326.241 106.051 324.853 103.214 324.853H95.3785ZM122.634 372.735C122.634 372.734 122.635 372.734 122.634 372.734C122.634 372.734 122.631 372.736 122.626 372.74C122.631 372.737 122.633 372.736 122.634 372.735ZM113.706 372.738C113.702 372.735 113.7 372.734 113.7 372.734C113.7 372.734 113.701 372.735 113.702 372.736C113.704 372.737 113.706 372.738 113.708 372.74C113.707 372.739 113.707 372.739 113.706 372.738ZM113.723 372.755C113.724 372.757 113.725 372.758 113.725 372.758C113.725 372.758 113.724 372.757 113.723 372.755ZM103.214 328.279H95.3785V372.168C95.3784 373.224 95.189 374.42 94.2843 375.28C93.3996 376.121 92.2246 376.259 91.2787 376.259H83.4156C82.5339 376.259 81.4433 376.091 80.5701 375.33C79.6499 374.528 79.3159 373.376 79.3159 372.168V334.819C79.3159 332.726 80.4875 330.277 82.1283 328.408C83.7917 326.514 86.2582 324.853 89.1717 324.853H91.9529V319.852C91.9529 319.105 92.2722 318.275 92.6847 317.561C93.1306 316.789 93.7974 315.956 94.7142 315.204C96.5784 313.675 99.4046 312.539 103.339 312.828C117.327 313.855 126.128 323.63 126.128 332.161V372.168C126.128 373.164 125.904 374.272 125.09 375.12C124.262 375.982 123.133 376.259 122.029 376.259H114.306C113.202 376.259 112.073 375.982 111.245 375.12C110.43 374.272 110.206 373.164 110.206 372.168V335.239C110.206 333.69 109.417 331.931 108.048 330.53C106.685 329.135 104.928 328.279 103.214 328.279ZM89.1717 328.279H91.9529V372.168C91.9529 372.485 91.9244 372.676 91.8982 372.781C91.788 372.807 91.5952 372.833 91.2787 372.833H83.4156C83.0195 372.833 82.8646 372.769 82.8263 372.749C82.8224 372.742 82.8169 372.73 82.8104 372.712C82.7835 372.639 82.7415 372.474 82.7415 372.168V334.819C82.7415 333.835 83.3948 332.158 84.7022 330.669C85.987 329.206 87.592 328.279 89.1717 328.279ZM82.8331 372.761C82.8331 372.761 82.8324 372.76 82.8312 372.758C82.8325 372.76 82.8331 372.761 82.8331 372.761ZM163.399 376.127V381.112C163.399 381.102 163.399 381.097 163.398 381.097C163.397 381.097 163.394 381.105 163.39 381.12C163.371 381.185 163.311 381.386 163.126 381.706C162.882 382.13 162.481 382.644 161.891 383.128C160.741 384.072 158.793 384.964 155.689 384.736C142.999 383.805 136.074 375.102 136.074 368.819V328.812C136.074 328.431 136.137 328.278 136.16 328.235C136.207 328.209 136.366 328.147 136.749 328.147H144.471C144.854 328.147 145.013 328.209 145.06 328.235C145.083 328.278 145.145 328.431 145.145 328.812V365.742C145.145 368.378 146.434 370.956 148.279 372.844C150.131 374.74 152.727 376.127 155.564 376.127H163.399ZM136.143 328.246C136.143 328.246 136.145 328.244 136.151 328.24C136.146 328.245 136.143 328.246 136.143 328.246ZM145.077 328.246C145.077 328.246 145.074 328.245 145.069 328.24C145.075 328.244 145.077 328.246 145.077 328.246ZM145.054 328.225C145.053 328.223 145.052 328.222 145.052 328.222C145.052 328.222 145.053 328.223 145.054 328.225ZM155.564 372.702H163.399V328.812C163.399 327.756 163.588 326.561 164.493 325.7C165.378 324.859 166.553 324.722 167.499 324.722H175.362C176.243 324.722 177.334 324.889 178.207 325.65C179.127 326.453 179.461 327.604 179.461 328.812V366.161C179.461 368.254 178.29 370.703 176.649 372.572C174.986 374.466 172.519 376.127 169.606 376.127H166.824V381.129C166.824 381.876 166.505 382.706 166.093 383.42C165.647 384.192 164.98 385.025 164.063 385.777C162.199 387.306 159.373 388.441 155.438 388.153C141.45 387.126 132.649 377.35 132.649 368.819V328.812C132.649 327.817 132.873 326.709 133.688 325.86C134.515 324.998 135.644 324.722 136.749 324.722H144.471C145.575 324.722 146.704 324.998 147.532 325.86C148.347 326.709 148.571 327.817 148.571 328.812V365.742C148.571 367.29 149.36 369.049 150.729 370.45C152.092 371.845 153.85 372.702 155.564 372.702ZM169.606 372.702H166.824V328.812C166.824 328.495 166.853 328.304 166.879 328.199C166.989 328.173 167.182 328.147 167.499 328.147H175.362C175.758 328.147 175.913 328.212 175.951 328.231C175.955 328.239 175.96 328.251 175.967 328.268C175.994 328.341 176.036 328.506 176.036 328.812V366.161C176.036 367.145 175.383 368.823 174.075 370.312C172.79 371.775 171.185 372.702 169.606 372.702ZM175.944 328.22C175.944 328.219 175.945 328.22 175.946 328.222C175.945 328.221 175.944 328.22 175.944 328.22Z" fill="#FEFBFF"/>
<ellipse id="Ellipse 171" cx="581.889" cy="86.4973" rx="45.7505" ry="45.7505" fill="#E71924"/>
<ellipse id="Ellipse 172" cx="637.647" cy="86.4973" rx="45.7505" ry="45.7505" fill="#F99F19"/>
<path id="Intersect" fill-rule="evenodd" clip-rule="evenodd" d="M609.768 122.595C598.9 114.23 591.897 101.092 591.897 86.3171C591.897 71.5426 598.9 58.4039 609.768 50.0394C620.636 58.4039 627.64 71.5426 627.64 86.3171C627.64 101.092 620.636 114.23 609.768 122.595Z" fill="#F26520"/>
<g id="Group 348">
<rect id="Rectangle 344" x="80.442" y="156.216" width="97.8925" height="69.2985" rx="6.19561" fill="url(#paint1_linear_1222_19643)" stroke="#211F21" stroke-width="2.18669"/>
<path id="Vector 9" d="M80.7783 178.713H110.087" stroke="#211F21" stroke-width="2.03929" stroke-linecap="round"/>
<path id="Vector 10" d="M80.7783 200.873H109.445" stroke="#211F21" stroke-width="2.03929" stroke-linecap="round"/>
<path id="Vector 11" d="M149.404 200.873H177.998" stroke="#211F21" stroke-width="2.03929" stroke-linecap="round"/>
<path id="Vector 12" d="M148.975 179.428H177.998" stroke="#211F21" stroke-width="2.03929" stroke-linecap="round"/>
<ellipse id="Ellipse 12" cx="129.388" cy="166.561" rx="2.14455" ry="2.14455" fill="#211F21"/>
<g id="Vector 13">
<path d="M231.053 205.824C236.325 192.59 236.926 185.119 231.053 171.645C230.43 170.215 231.053 169.024 231.768 168.786C232.483 168.547 233.589 168.786 234.27 170.215C241.188 184.73 240.767 192.87 234.627 207.387C233.912 208.817 232.575 208.998 231.768 208.46C230.824 207.831 230.608 206.941 231.053 205.824Z" fill="#FEFBFF"/>
<path d="M223.547 172.717C222.832 173.075 222.375 174.43 223.19 175.934C227.999 185.94 227.801 191.662 223.19 202.026C222.686 203.071 222.998 204.226 223.905 204.528C224.977 204.886 225.913 204.125 226.406 203.098C231.701 192.084 231.84 185.756 226.406 174.147C225.905 173.075 224.619 172.181 223.547 172.717Z" fill="#FEFBFF"/>
<path d="M216.399 177.364C215.326 177.721 215.136 178.908 215.684 180.223C218.53 187.063 218.979 190.898 215.684 197.737C215.041 198.929 214.83 200.193 216.041 200.596C217.252 201 218.126 200.363 218.543 199.524C222.766 191.149 221.82 186.454 218.543 178.079C218.263 177.364 217.471 177.006 216.399 177.364Z" fill="#FEFBFF"/>
<path d="M208.893 180.223C207.82 180.938 207.668 182.022 208.535 183.797C210.344 187.564 210.303 189.68 208.535 193.448C207.713 195.11 207.463 197.022 208.893 197.38C210.322 197.737 210.957 197.229 211.752 195.235C213.578 189.987 213.756 187.02 211.752 181.653C211.291 180.261 210.322 179.508 208.893 180.223Z" fill="#FEFBFF"/>
</g>
<path id="Vector 14" d="M145.115 170.85C142.372 161.508 137.252 156.91 129.031 156.91C119.023 156.91 116.195 164.53 110.087 178.355C113.998 187.507 114.039 192.437 110.087 200.873C116.494 219.254 121.24 224.915 129.388 224.821C140.111 224.821 143.163 215.733 149.047 200.873C145.952 192.498 145.622 187.876 148.5 179.5" stroke="#211F21" stroke-width="2.03929" stroke-linecap="round"/>
</g>
</g>
<defs>
<linearGradient id="paint0_linear_1222_19643" x1="610.09" y1="61.83" x2="354.096" y2="526.995" gradientUnits="userSpaceOnUse">
<stop stop-color="#A950C4"/>
<stop offset="1" stop-color="#82269E"/>
</linearGradient>
<linearGradient id="paint1_linear_1222_19643" x1="171" y1="165" x2="87" y2="221" gradientUnits="userSpaceOnUse">
<stop stop-color="#F4F4F4"/>
<stop offset="1" stop-color="#D6D6D6"/>
</linearGradient>
</defs>
</svg>
